<svg aria-hidden="true" style="position: absolute; width: 0; height: 0; overflow: hidden;" version="1.1" xmlns="http://www.w3.org/2000/svg" xmlns:xlink="http://www.w3.org/1999/xlink">
<defs>
<symbol id="dropdown-icon" viewBox="0 0 32 32">
<path fill="#fffcfc" style="fill: var(--color1, #fffcfc)" d="M22.667 12.227c-0.241-0.24-0.573-0.388-0.94-0.388s-0.699 0.148-0.94 0.388l0-0-4.787 4.72-4.72-4.72c-0.241-0.239-0.573-0.387-0.94-0.387-0.737 0-1.334 0.597-1.334 1.334 0 0.37 0.151 0.705 0.394 0.946l5.653 5.653c0.242 0.244 0.577 0.395 0.947 0.395s0.706-0.151 0.947-0.395l0-0 5.72-5.653c0.244-0.242 0.394-0.576 0.394-0.946s-0.151-0.705-0.394-0.946l-0-0z"></path>
</symbol>
<symbol id="icon-login" viewBox="0 0 32 32">
<path  d="M18.667 4c0 0.736 0.597 1.333 1.333 1.333v0h5.333c0.736 0 1.333 0.597 1.333 1.333v0 18.667c0 0.736-0.597 1.333-1.333 1.333v0h-5.333c-0.736 0-1.333 0.597-1.333 1.333s0.597 1.333 1.333 1.333v0h5.333c2.209 0 4-1.791 4-4v0-18.667c0-2.209-1.791-4-4-4v0h-5.333c-0.736 0-1.333 0.597-1.333 1.333v0zM20.947 16.947c0.118-0.123 0.213-0.269 0.277-0.431l0.003-0.009c0.068-0.149 0.107-0.323 0.107-0.507s-0.039-0.358-0.11-0.515l0.003 0.008c-0.067-0.171-0.162-0.317-0.28-0.44l0 0-5.333-5.333c-0.242-0.242-0.577-0.392-0.947-0.392-0.739 0-1.339 0.599-1.339 1.339 0 0.37 0.15 0.704 0.392 0.947v0l3.067 3.053h-12.787c-0.736 0-1.333 0.597-1.333 1.333s0.597 1.333 1.333 1.333v0h12.787l-3.067 3.053c-0.219 0.238-0.353 0.556-0.353 0.906 0 0.74 0.6 1.34 1.34 1.34 0.35 0 0.669-0.134 0.907-0.354l-0.001 0.001 5.333-5.333z"></path>
</symbol>
<symbol id="icon-register" viewBox="0 0 32 32">
<path d="M28 14h-1.333v-1.333c0-0.736-0.597-1.333-1.333-1.333s-1.333 0.597-1.333 1.333v0 1.333h-1.333c-0.736 0-1.333 0.597-1.333 1.333s0.597 1.333 1.333 1.333v0h1.333v1.333c0 0.736 0.597 1.333 1.333 1.333s1.333-0.597 1.333-1.333v0-1.333h1.333c0.736 0 1.333-0.597 1.333-1.333s-0.597-1.333-1.333-1.333v0zM17.733 16.293c1.392-1.21 2.267-2.983 2.267-4.96 0-0 0-0 0-0v0c0-3.682-2.985-6.667-6.667-6.667s-6.667 2.985-6.667 6.667v0c0 0 0 0 0 0 0 1.977 0.875 3.75 2.259 4.953l0.008 0.007c-3.723 1.716-6.262 5.414-6.267 9.706v0.001c0 0.736 0.597 1.333 1.333 1.333s1.333-0.597 1.333-1.333v0c0-4.418 3.582-8 8-8s8 3.582 8 8v0c0 0.736 0.597 1.333 1.333 1.333s1.333-0.597 1.333-1.333v0c-0.004-4.292-2.543-7.991-6.201-9.679l-0.066-0.027zM13.333 15.333c-2.209 0-4-1.791-4-4s1.791-4 4-4v0c2.209 0 4 1.791 4 4s-1.791 4-4 4v0z"></path>
</symbol>
<symbol id="logo" viewBox="0 0 127 32">
<path fill="#fff" style="fill: var(--color2, #fff)" d="M39.832 21.142c-0.121 0.321-0.241 0.641-0.264 0.97-0.043 0.637 0.051 1.291 0.17 1.927 0.050 0.318 0.113 0.635 0.177 0.952 0.163 0.808 0.325 1.615 0.264 2.445-0.077 0.96-0.382 1.843-1.299 2.276-0.501 0.237-1.137 0.373-1.673 0.297-0.976-0.127-1.943-0.39-2.869-0.713-0.908-0.322-1.732-0.212-2.623 0.085-4.635 1.553-9.38 2.318-14.277 1.8-2.578-0.271-4.927-0.77-7.179-1.487l0.253 0.069c-0.399-0.123-0.628-0.201-0.855-0.283l0.166 0.052c-0.451-0.157-0.904-0.313-1.365-0.415-0.391-0.085-0.84-0.043-1.239 0.051-0.433 0.102-0.86 0.226-1.287 0.35-0.645 0.188-1.288 0.375-1.947 0.483-1.767 0.289-2.937-0.68-3.099-2.454-0.093-1.079 0.085-2.123 0.399-3.142 0.221-0.705 0.849-1.079 1.418-0.909 0.611 0.187 0.993 0.883 0.874 1.563-0.027 0.157-0.056 0.313-0.085 0.471-0.069 0.322-0.149 0.803-0.215 1.288l-0.014 0.125c-0.077 0.629 0.11 0.79 0.721 0.629 0.789-0.213 1.579-0.425 2.36-0.68 1.188-0.381 2.317-0.263 3.513 0.103 1.539 0.506 3.551 1.031 5.601 1.453l0.392 0.067c2.47 0.475 4.983 0.527 7.478 0.263 2.246-0.238 4.288-0.66 6.253-1.259l-0.235 0.062c0.389-0.117 0.775-0.246 1.162-0.374 0.266-0.104 0.777-0.269 1.294-0.422l0.243-0.062c0.849-0.238 1.707-0.102 2.547 0.136 0.275 0.080 0.549 0.162 0.823 0.243 0.512 0.153 1.023 0.307 1.537 0.445 0.73 0.203 0.9 0.085 0.832-0.654-0.038-0.405-0.115-0.806-0.192-1.207-0.043-0.223-0.086-0.445-0.122-0.669-0.073-0.349-0.189-1.078-0.293-1.811l-0.038-0.329c-0.109-0.824 0.138-1.583 0.385-2.343 0.063-0.195 0.127-0.391 0.184-0.587 0.603-2.072 0.883-4.187 0.483-6.327-0.212-1.129-0.527-2.25-0.865-3.353-0.34-1.121-0.17-2.217 0.008-3.32 0.053-0.322 0.111-0.641 0.169-0.96 0.101-0.557 0.202-1.111 0.272-1.673 0.068-0.535-0.101-0.679-0.645-0.551-0.375 0.085-0.743 0.195-1.113 0.304-0.292 0.087-0.585 0.173-0.881 0.248-0.321 0.080-0.441 0.114-0.561 0.149l0.203-0.050c-0.483 0.137-0.969 0.273-1.459 0.3-0.56 0.026-1.146-0.101-1.698-0.246-0.697-0.179-1.39-0.377-2.083-0.577-1.181-0.339-2.363-0.677-3.561-0.918-2.827-0.569-5.679-0.721-8.565-0.365-2.911 0.357-5.713 1.095-8.471 2.004-0.416 0.135-0.908 0.178-1.333 0.093-1.077-0.221-2.139-0.509-3.191-0.824-1.104-0.331-1.299-0.187-1.104 0.968 0.073 0.432 0.148 0.862 0.223 1.292 0.109 0.627 0.22 1.254 0.32 1.884 0.145 0.9 0 1.749-0.313 2.615-0.654 1.8-0.68 3.617 0.008 5.435 0.463 1.207 1.11 2.244 1.917 3.133l-0.007-0.008c1.247 1.384 2.775 2.395 4.575 2.913 0.595 0.17 1.204 0.287 1.813 0.404 0.304 0.058 0.609 0.117 0.911 0.182l-0.046 0.016c-0.069 0.024-0.151 0.053-0.233 0.060-2.233 0.255-4.415 0.102-6.46-0.917-2.063-1.027-3.523-2.615-4.499-4.696-1.095-2.335-1.087-4.729-0.289-7.107 0.359-1.057 0.173-2.034-0.013-3.020-0.043-0.186-0.104-0.527-0.158-0.871l-0.017-0.135c-0.158-0.962-0.316-1.927-0.049-2.911 0.297-1.070 1.121-1.809 2.258-1.792 0.698 0.016 1.397 0.169 2.081 0.32l0.168 0.037c0.662 0.145 1.307 0.34 1.944 0.577 0.425 0.162 0.796 0.045 1.173-0.073 0.098-0.031 0.195-0.061 0.295-0.088 0.605-0.161 1.208-0.333 1.81-0.505 1.299-0.37 2.597-0.74 3.919-1.007 3.098-0.62 6.239-0.755 9.405-0.357 2.751 0.349 5.424 0.943 8.030 1.868 0.773 0.28 1.469 0.195 2.207-0.025 0.177-0.053 0.353-0.109 0.531-0.165 0.548-0.172 1.101-0.346 1.66-0.48 0.763-0.187 1.545-0.23 2.283 0.127 0.943 0.459 1.333 1.291 1.392 2.259 0.034 0.671-0.059 1.351-0.153 2.021-0.051 0.369-0.123 0.739-0.194 1.109-0.095 0.489-0.191 0.98-0.239 1.473-0.047 0.443 0.060 0.9 0.163 1.344l0.023 0.1c0.104 0.44 0.22 0.879 0.337 1.319 0.121 0.458 0.243 0.917 0.351 1.381 0.043 0.169-0.033 0.399-0.135 0.543-0.314 0.475-0.314 0.798 0.135 1.138 0.247 0.187 0.306 0.407 0.323 0.687 0.093 1.953-0.212 3.864-0.764 5.732-0.048 0.161-0.108 0.321-0.169 0.482z"></path>
<path fill="#fff" style="fill: var(--color2, #fff)" d="M24.968 12.907l0.204 1.427c0.068 0.459 0.348 0.697 0.789 0.756l0.033 0.005c0.609 0.091 1.226 0.185 1.834 0.343-0.195 0.031-0.391 0.065-0.585 0.099-0.265 0.054-0.664 0.118-1.066 0.17l-0.105 0.011c-0.595 0.076-0.823 0.263-0.917 0.857-0.053 0.337-0.097 0.669-0.141 1.003-0.020 0.155-0.041 0.31-0.063 0.467-0.009 0.093-0.051 0.178-0.17 0.263-0.018-0.077-0.038-0.192-0.056-0.309l-0.004-0.031c-0.027-0.177-0.051-0.356-0.076-0.535-0.046-0.335-0.092-0.673-0.153-1.011-0.076-0.433-0.348-0.637-0.781-0.696-0.413-0.051-0.827-0.117-1.239-0.183-0.207-0.033-0.413-0.067-0.62-0.097v-0.076c0.306-0.047 0.609-0.091 0.913-0.136s0.607-0.089 0.912-0.136c0.56-0.085 0.755-0.272 0.849-0.832 0.053-0.337 0.097-0.669 0.141-1.003 0.020-0.155 0.041-0.31 0.063-0.467 0.017-0.111 0.080-0.205 0.169-0.262l0.001-0.001 0.011 0.055c0.022 0.107 0.043 0.21 0.057 0.319zM29.223 12.067c-0.027-0.193-0.053-0.385-0.087-0.577-0.043-0.247-0.195-0.357-0.45-0.391-0.227-0.028-0.449-0.063-0.673-0.097-0.12-0.019-0.241-0.038-0.362-0.055v-0.043l1.019-0.153c0.313-0.042 0.424-0.144 0.475-0.458 0.021-0.136 0.038-0.272 0.055-0.408s0.034-0.271 0.055-0.407c0.011-0.060 0.045-0.111 0.093-0.143l0.001-0.001c0.017 0.067 0.034 0.135 0.043 0.203 0.033 0.272 0.068 0.535 0.11 0.798 0.043 0.255 0.195 0.391 0.442 0.425 0.347 0.051 0.696 0.102 1.044 0.195l-0.307 0.050c-0.221 0.037-0.443 0.074-0.67 0.103-0.331 0.042-0.458 0.144-0.509 0.475-0.033 0.271-0.067 0.543-0.11 0.815-0.009 0.051-0.025 0.093-0.093 0.144-0.013-0.046-0.024-0.103-0.031-0.161l-0.001-0.006-0.003-0.020c0.006 0.067-0.009-0.032-0.022-0.13l-0.018-0.158zM85.455 20.585c0.475 0.243 1.061 0.364 1.756 0.364h1.408c0.116 0 0.215-0.041 0.295-0.121 0.075-0.073 0.122-0.175 0.122-0.288 0-0.002-0-0.005-0-0.007v0-1.075c0-0.002 0-0.005 0-0.007 0-0.113-0.047-0.215-0.122-0.288l-0-0c-0.073-0.075-0.175-0.121-0.288-0.121-0.003 0-0.005 0-0.008 0h-1.199c-0.417 0-0.713-0.133-0.887-0.399-0.162-0.266-0.243-0.636-0.243-1.109v-3.761h2.173c0.116 0 0.215-0.041 0.296-0.121 0.075-0.076 0.122-0.181 0.122-0.297 0-0.005-0-0.011-0-0.016l0 0.001v-0.988c0-0.002 0-0.004 0-0.007 0-0.113-0.046-0.215-0.121-0.288l-0-0c-0.073-0.075-0.176-0.121-0.289-0.121-0.003 0-0.005 0-0.008 0h-2.172v-2.877c0-0.002 0-0.005 0-0.007 0-0.113-0.047-0.215-0.122-0.288l-0-0c-0.073-0.075-0.175-0.121-0.288-0.121-0.003 0-0.005 0-0.008 0h-1.408c-0.005-0-0.010-0-0.016-0-0.116 0-0.221 0.046-0.297 0.122l0-0c-0.065 0.076-0.105 0.175-0.105 0.283 0 0.004 0 0.008 0 0.012v-0.001 2.877h-1.373c-0.002-0-0.004-0-0.007-0-0.113 0-0.215 0.046-0.288 0.121l-0 0c-0.075 0.073-0.121 0.174-0.121 0.287 0 0.003 0 0.006 0 0.008v-0 0.988c0 0.127 0.040 0.231 0.121 0.312s0.18 0.121 0.295 0.121h1.373v3.935c0 0.716 0.116 1.317 0.348 1.803 0.229 0.468 0.595 0.84 1.047 1.069l0.013 0.006z"></path>
<path fill="#fff" style="fill: var(--color2, #fff)" d="M52.288 20.827c0.081 0.081 0.18 0.122 0.296 0.122h5.18c0.904 0 1.663-0.151 2.277-0.451 0.614-0.312 1.077-0.74 1.391-1.283s0.469-1.161 0.469-1.855c0-0.671-0.174-1.248-0.522-1.733s-0.747-0.832-1.199-1.040c0.22-0.116 0.44-0.277 0.661-0.485 0.232-0.208 0.423-0.474 0.573-0.797 0.163-0.335 0.244-0.723 0.244-1.161 0-0.659-0.145-1.237-0.435-1.733-0.278-0.497-0.713-0.884-1.304-1.161-0.591-0.289-1.356-0.433-2.295-0.433h-5.041c-0.002-0-0.005-0-0.008-0-0.113 0-0.215 0.046-0.288 0.121l-0 0c-0.075 0.076-0.122 0.181-0.122 0.296 0 0.006 0 0.011 0 0.017l-0-0.001v11.284c0 0.115 0.040 0.213 0.121 0.295zM57.486 19.111h-2.903v-3.519h2.903c0.614 0 1.083 0.167 1.408 0.503 0.336 0.335 0.504 0.757 0.504 1.265 0 0.485-0.162 0.901-0.487 1.248-0.325 0.335-0.8 0.503-1.425 0.503zM57.312 13.79h-2.729v-3.155h2.729c0.614 0 1.072 0.139 1.373 0.416 0.313 0.277 0.469 0.659 0.469 1.144 0 0.473-0.157 0.861-0.469 1.161-0.301 0.289-0.759 0.433-1.373 0.433zM64.709 20.013c0.753 0.739 1.773 1.109 3.059 1.109 0.649 0 1.223-0.081 1.721-0.243 0.509-0.173 0.933-0.387 1.269-0.641s0.591-0.515 0.765-0.78c0.185-0.266 0.284-0.491 0.296-0.676 0.002-0.011 0.003-0.025 0.003-0.038 0-0.090-0.042-0.17-0.107-0.222l-0.001-0c-0.067-0.065-0.159-0.104-0.26-0.104-0.006 0-0.013 0-0.019 0l0.001-0h-1.495c-0.128 0-0.226 0.017-0.296 0.052-0.058 0.023-0.139 0.104-0.243 0.243-0.219 0.281-0.499 0.505-0.82 0.653l-0.014 0.006c-0.221 0.092-0.493 0.139-0.817 0.139-0.394 0-0.736-0.104-1.025-0.312-0.278-0.211-0.497-0.485-0.638-0.802l-0.005-0.013c-0.135-0.333-0.218-0.719-0.227-1.123l-0-0.004v-0.139h5.772c0.127 0 0.231-0.041 0.313-0.121 0.075-0.073 0.122-0.175 0.122-0.288 0-0.002-0-0.005-0-0.007v0-0.364c0-0.901-0.163-1.693-0.487-2.375-0.325-0.693-0.806-1.231-1.443-1.612-0.637-0.393-1.425-0.589-2.364-0.589-0.846 0-1.582 0.173-2.207 0.52-0.627 0.339-1.131 0.835-1.469 1.438l-0.009 0.018c-0.347 0.624-0.545 1.375-0.591 2.253-0.011 0.115-0.018 0.248-0.018 0.382 0 0.018 0 0.036 0 0.054l-0-0.003c0 0.173 0.005 0.317 0.017 0.433 0.058 1.363 0.463 2.415 1.217 3.155zM69.698 15.662h-3.841v-0.052c0-0.451 0.069-0.844 0.209-1.179 0.151-0.347 0.371-0.613 0.661-0.797 0.289-0.197 0.637-0.295 1.043-0.295s0.753 0.098 1.043 0.295c0.289 0.185 0.51 0.451 0.661 0.797 0.151 0.335 0.225 0.728 0.225 1.179v0.052z"></path>
<path fill="#fff" style="fill: var(--color2, #fff)" d="M77.332 21.122c-0.695 0-1.292-0.081-1.79-0.243-0.487-0.162-0.887-0.364-1.2-0.607s-0.545-0.485-0.695-0.728-0.231-0.445-0.243-0.607c-0.011-0.127 0.023-0.225 0.105-0.295 0.077-0.073 0.181-0.119 0.295-0.121h1.374c0.046 0 0.087 0.005 0.121 0.017s0.081 0.046 0.139 0.104c0.151 0.127 0.307 0.26 0.469 0.399 0.174 0.139 0.377 0.26 0.609 0.364 0.231 0.092 0.521 0.139 0.869 0.139 0.452 0 0.829-0.087 1.13-0.26 0.313-0.185 0.469-0.445 0.469-0.78 0-0.243-0.069-0.439-0.209-0.589-0.127-0.151-0.371-0.283-0.73-0.399-0.359-0.127-0.869-0.26-1.529-0.399-0.649-0.151-1.188-0.341-1.617-0.572s-0.747-0.52-0.956-0.867-0.313-0.751-0.313-1.213c0-0.451 0.133-0.879 0.4-1.283 0.278-0.416 0.684-0.757 1.217-1.023 0.545-0.266 1.217-0.399 2.017-0.399 0.626 0 1.171 0.081 1.634 0.243 0.463 0.15 0.846 0.341 1.147 0.572 0.313 0.231 0.551 0.468 0.713 0.711 0.162 0.231 0.249 0.433 0.261 0.607 0.002 0.015 0.003 0.033 0.003 0.050 0 0.102-0.041 0.194-0.107 0.262l0-0c-0.073 0.065-0.17 0.104-0.276 0.104-0.001 0-0.002 0-0.003 0h-1.286c-0.002 0-0.003 0-0.005 0-0.055 0-0.107-0.013-0.154-0.036l0.002 0.001c-0.053-0.027-0.098-0.056-0.141-0.088l0.002 0.002c-0.128-0.116-0.267-0.237-0.417-0.364-0.158-0.142-0.342-0.259-0.544-0.342l-0.013-0.005c-0.208-0.093-0.487-0.139-0.834-0.139-0.441 0-0.777 0.098-1.008 0.295-0.212 0.16-0.348 0.412-0.348 0.695 0 0.005 0 0.011 0 0.016v-0.001c0 0.196 0.052 0.369 0.157 0.52 0.116 0.139 0.341 0.271 0.678 0.399s0.846 0.26 1.529 0.399c0.777 0.139 1.391 0.347 1.843 0.624 0.463 0.265 0.788 0.577 0.973 0.936 0.197 0.347 0.296 0.733 0.296 1.161 0 0.52-0.157 0.988-0.469 1.404-0.301 0.416-0.753 0.745-1.356 0.988-0.591 0.231-1.327 0.347-2.208 0.347z"></path>
<path fill="#fff" style="fill: var(--color2, #fff)" d="M91.204 20.949c-0.002 0-0.005 0-0.007 0-0.113 0-0.215-0.046-0.289-0.121l-0-0c-0.075-0.073-0.121-0.175-0.121-0.288 0-0.002 0-0.005 0-0.007v0-11.284c0-0.127 0.041-0.231 0.121-0.312 0.073-0.075 0.176-0.121 0.289-0.121 0.003 0 0.005 0 0.008 0h4.502c1.402 0 2.509 0.323 3.32 0.971s1.217 1.589 1.217 2.825c0 0.855-0.215 1.565-0.643 2.132-0.417 0.566-0.979 0.976-1.687 1.231l2.538 4.42c0.035 0.069 0.053 0.133 0.053 0.191 0 0.001 0 0.003 0 0.005 0 0.103-0.047 0.195-0.121 0.255l-0.001 0c-0.061 0.064-0.147 0.104-0.242 0.104-0.001 0-0.001 0-0.001 0h-1.582c-0.197 0-0.347-0.052-0.452-0.156-0.093-0.090-0.174-0.193-0.24-0.305l-0.004-0.007-2.242-4.108h-2.417v4.16c0 0.115-0.041 0.213-0.121 0.295-0.070 0.081-0.168 0.121-0.296 0.121h-1.581zM93.203 14.414h2.451c0.707 0 1.234-0.156 1.582-0.468 0.347-0.324 0.521-0.775 0.521-1.352s-0.174-1.029-0.521-1.352c-0.337-0.335-0.863-0.503-1.582-0.503h-2.451v3.675zM103.007 20.013c0.753 0.739 1.773 1.109 3.059 1.109 0.649 0 1.223-0.081 1.721-0.243 0.51-0.173 0.933-0.387 1.269-0.641s0.591-0.515 0.765-0.78c0.185-0.266 0.283-0.491 0.295-0.676 0.002-0.011 0.003-0.025 0.003-0.038 0-0.090-0.042-0.17-0.107-0.222l-0.001-0c-0.067-0.065-0.159-0.104-0.26-0.104-0.006 0-0.013 0-0.019 0l0.001-0h-1.495c-0.127 0-0.226 0.017-0.296 0.052-0.057 0.023-0.139 0.104-0.243 0.243-0.090 0.116-0.187 0.218-0.293 0.31l-0.003 0.002c-0.155 0.137-0.332 0.253-0.525 0.341l-0.013 0.006c-0.22 0.092-0.493 0.139-0.817 0.139-0.394 0-0.736-0.104-1.025-0.312-0.278-0.211-0.497-0.485-0.638-0.802l-0.005-0.013c-0.135-0.333-0.217-0.719-0.226-1.123l-0-0.004v-0.139h5.771c0.127 0 0.232-0.041 0.313-0.121 0.075-0.073 0.122-0.175 0.122-0.288 0-0.002-0-0.005-0-0.007v0-0.364c0-0.901-0.162-1.693-0.487-2.375-0.325-0.693-0.805-1.231-1.443-1.612-0.638-0.393-1.426-0.589-2.365-0.589-0.846 0-1.581 0.173-2.207 0.52-0.627 0.339-1.13 0.835-1.468 1.438l-0.009 0.018c-0.348 0.624-0.545 1.375-0.591 2.253-0.011 0.115-0.018 0.25-0.018 0.385 0 0.017 0 0.034 0 0.051l-0-0.003c0 0.173 0.006 0.317 0.017 0.433 0.058 1.363 0.463 2.415 1.217 3.155zM107.996 15.662h-3.842v-0.052c0-0.451 0.069-0.844 0.209-1.179 0.151-0.347 0.371-0.613 0.661-0.797 0.289-0.197 0.637-0.295 1.043-0.295s0.753 0.098 1.043 0.295c0.289 0.185 0.51 0.451 0.661 0.797 0.151 0.335 0.226 0.728 0.226 1.179v0.052z"></path>
<path fill="#fff" style="fill: var(--color2, #fff)" d="M115.629 21.122c-0.695 0-1.292-0.081-1.79-0.243-0.487-0.162-0.887-0.364-1.199-0.607s-0.545-0.485-0.695-0.728-0.232-0.445-0.243-0.607c-0.012-0.127 0.023-0.225 0.104-0.295 0.077-0.073 0.181-0.119 0.295-0.121h1.374c0.047 0 0.087 0.005 0.122 0.017s0.081 0.046 0.139 0.104c0.151 0.127 0.307 0.26 0.469 0.399 0.174 0.139 0.377 0.26 0.609 0.364 0.232 0.092 0.521 0.139 0.869 0.139 0.452 0 0.829-0.087 1.13-0.26 0.313-0.185 0.469-0.445 0.469-0.78 0-0.243-0.070-0.439-0.209-0.589-0.128-0.151-0.371-0.283-0.73-0.399-0.359-0.127-0.869-0.26-1.53-0.399-0.649-0.151-1.188-0.341-1.617-0.572s-0.747-0.52-0.956-0.867-0.313-0.751-0.313-1.213c0-0.451 0.133-0.879 0.399-1.283 0.278-0.416 0.684-0.757 1.217-1.023 0.545-0.266 1.217-0.399 2.017-0.399 0.626 0 1.171 0.081 1.634 0.243 0.464 0.15 0.846 0.341 1.147 0.572 0.313 0.231 0.551 0.468 0.713 0.711 0.163 0.231 0.249 0.433 0.261 0.607 0.002 0.016 0.004 0.033 0.004 0.052 0 0.102-0.041 0.194-0.108 0.26v0c-0.073 0.065-0.17 0.104-0.275 0.104-0.001 0-0.002 0-0.003 0h-1.287c-0.002 0-0.003 0-0.005 0-0.055 0-0.107-0.013-0.154-0.036l0.002 0.001c-0.053-0.027-0.098-0.056-0.141-0.088l0.002 0.002c-0.127-0.116-0.267-0.237-0.417-0.364-0.158-0.142-0.342-0.259-0.543-0.342l-0.013-0.005c-0.209-0.093-0.487-0.139-0.835-0.139-0.44 0-0.777 0.098-1.008 0.295-0.212 0.16-0.348 0.412-0.348 0.695 0 0.005 0 0.011 0 0.016v-0.001c0 0.196 0.052 0.369 0.157 0.52 0.116 0.139 0.342 0.271 0.678 0.399s0.846 0.26 1.529 0.399c0.777 0.139 1.391 0.347 1.843 0.624 0.464 0.265 0.788 0.577 0.974 0.936 0.197 0.347 0.295 0.733 0.295 1.161 0 0.52-0.157 0.988-0.469 1.404-0.301 0.416-0.753 0.745-1.356 0.988-0.591 0.231-1.327 0.347-2.208 0.347zM123.753 20.585c0.475 0.243 1.060 0.364 1.755 0.364h1.408c0.116 0 0.215-0.041 0.295-0.121 0.075-0.073 0.122-0.175 0.122-0.288 0-0.002-0-0.005-0-0.007v0-1.075c0-0.002 0-0.005 0-0.007 0-0.113-0.047-0.215-0.122-0.288l-0-0c-0.073-0.075-0.175-0.121-0.288-0.121-0.003 0-0.005 0-0.008 0h-1.199c-0.417 0-0.713-0.133-0.887-0.399-0.162-0.266-0.243-0.636-0.243-1.109v-3.761h2.173c0.116 0 0.215-0.041 0.296-0.121 0.075-0.076 0.122-0.181 0.122-0.297 0-0.005-0-0.011-0-0.016l0 0.001v-0.988c0-0.002 0-0.004 0-0.007 0-0.113-0.046-0.215-0.121-0.288l-0-0c-0.073-0.075-0.176-0.121-0.289-0.121-0.003 0-0.005 0-0.008 0h-2.172v-2.877c0-0.002 0-0.004 0-0.007 0-0.113-0.046-0.215-0.121-0.288l-0-0c-0.073-0.075-0.176-0.121-0.289-0.121-0.003 0-0.005 0-0.008 0h-1.408c-0.005-0-0.010-0-0.015-0-0.116 0-0.221 0.046-0.297 0.122l0-0c-0.065 0.076-0.105 0.175-0.105 0.284 0 0.004 0 0.007 0 0.011v-0.001 2.877h-1.373c-0.002-0-0.005-0-0.007-0-0.113 0-0.215 0.046-0.289 0.121l-0 0c-0.075 0.073-0.121 0.175-0.121 0.288 0 0.002 0 0.005 0 0.007v-0 0.988c0 0.127 0.041 0.231 0.121 0.312s0.18 0.121 0.296 0.121h1.373v3.935c0 0.716 0.116 1.317 0.348 1.803 0.232 0.473 0.585 0.832 1.061 1.075z"></path>
</symbol>
<symbol id="quotes-icon" viewBox="0 0 39 32">
<path fill="#6ceec7" style="fill: var(--color3, #6ceec7)" d="M7.842 30.080l-6.446-4.421c3.806-5.321 5.771-10.926 5.893-16.821v-8.839h11.234v7.979c-0.041 4.091-1.063 8.183-3.070 12.277-1.966 4.053-4.503 7.326-7.611 9.822zM26.688 30.080l-6.446-4.421c3.806-5.321 5.769-10.926 5.893-16.821v-8.839h11.234v7.979c-0.041 4.091-1.065 8.183-3.070 12.277-1.966 4.053-4.503 7.326-7.611 9.822z"></path>
</symbol>
<symbol id="search-icon" viewBox="0 0 32 32">
<path fill="#67d9b7" style="fill: var(--color4, #67d9b7)" d="M28.947 27.053l-4.947-4.907c1.644-2.036 2.639-4.656 2.639-7.508 0-6.627-5.373-12-12-12s-12 5.373-12 12c0 6.627 5.373 12 12 12 2.852 0 5.472-0.995 7.531-2.657l-0.023 0.018 4.907 4.907c0.242 0.243 0.577 0.393 0.947 0.393s0.705-0.15 0.947-0.393l0-0c0.232-0.24 0.375-0.566 0.375-0.927s-0.143-0.687-0.375-0.927l0 0zM14.667 24c-5.155 0-9.333-4.179-9.333-9.333s4.179-9.333 9.333-9.333v0c5.155 0 9.333 4.179 9.333 9.333s-4.179 9.333-9.333 9.333v0z"></path>
</symbol>
<symbol id="star-icon" viewBox="0 0 32 32">
<path fill="#f3d482" style="fill: var(--color5, #f3d482)" d="M23.892 19.093c-0.275 0.267-0.446 0.64-0.446 1.054 0 0.085 0.007 0.168 0.021 0.248l-0.001-0.009 1.187 6.56c0.014 0.076 0.023 0.165 0.023 0.254 0 0.49-0.244 0.922-0.618 1.182l-0.005 0.003c-0.239 0.176-0.54 0.282-0.865 0.282-0.255 0-0.494-0.065-0.703-0.179l0.008 0.004-5.907-3.080c-0.193-0.104-0.422-0.167-0.665-0.173l-0.002-0h-0.36c-0.135 0.020-0.256 0.062-0.366 0.123l0.006-0.003-5.907 3.093c-0.293 0.147-0.623 0.2-0.947 0.147-0.691-0.135-1.206-0.736-1.206-1.457 0-0.084 0.007-0.166 0.020-0.245l-0.001 0.009 1.187-6.56c0.013-0.073 0.020-0.157 0.020-0.242 0-0.417-0.171-0.794-0.446-1.064l-0-0-4.813-4.667c-0.271-0.262-0.439-0.629-0.439-1.035 0-0.169 0.029-0.331 0.082-0.481l-0.003 0.010c0.18-0.528 0.636-0.913 1.187-1l6.627-0.96c0.504-0.053 0.947-0.36 1.173-0.813l2.92-5.987c0.068-0.133 0.157-0.256 0.267-0.36l0.12-0.093c0.061-0.067 0.131-0.125 0.209-0.171l0.004-0.002 0.147-0.053 0.227-0.093h0.56c0.503 0.053 0.944 0.352 1.173 0.8l2.96 5.96c0.213 0.436 0.627 0.739 1.107 0.813l6.627 0.96c0.56 0.080 1.027 0.467 1.213 1 0.173 0.535 0.023 1.121-0.387 1.507l-4.987 4.72z"></path>
</symbol>
</defs>
</svg>
