<svg aria-hidden="true" style="position: absolute; width: 0; height: 0; overflow: hidden;" version="1.1" xmlns="http://www.w3.org/2000/svg" xmlns:xlink="http://www.w3.org/1999/xlink">
<defs>
<symbol id="icon-1" viewBox="0 0 35 32">
<path fill="#6ceec7" style="fill: var(--color1, #6ceec7)" d="M14.070 13.307c-1.019-1.020-1.648-2.428-1.648-3.983 0-0.568 0.084-1.116 0.24-1.632l-0.010 0.040c0.080-0.262 0.32-0.449 0.603-0.449 0.062 0 0.121 0.009 0.177 0.025l-0.004-0.001c0.262 0.080 0.449 0.32 0.449 0.603 0 0.061-0.009 0.121-0.025 0.177l0.001-0.004c-0.114 0.372-0.18 0.799-0.18 1.242 0 1.208 0.489 2.303 1.28 3.096l-0-0c0.788 0.792 1.879 1.281 3.083 1.281 0.004 0 0.008 0 0.012 0h-0.001c0.003 0 0.007 0 0.010 0 1.205 0 2.295-0.49 3.083-1.281l0-0c0.792-0.788 1.282-1.878 1.282-3.083 0-0.004 0-0.007 0-0.011v0.001c0-1.168-0.456-2.269-1.282-3.094-0.791-0.792-1.884-1.281-3.092-1.281-0.445 0-0.873 0.066-1.278 0.19l0.031-0.008c-0.053 0.016-0.115 0.026-0.178 0.026-0.344 0-0.623-0.279-0.623-0.623 0-0.281 0.186-0.518 0.441-0.596l0.004-0.001c0.479-0.148 1.029-0.233 1.6-0.233 1.554 0 2.96 0.631 3.976 1.652l0 0c1.019 1.013 1.65 2.415 1.65 3.965 0 0.003 0 0.007 0 0.010v-0.001c0 0.003 0 0.007 0 0.010 0 1.55-0.631 2.953-1.65 3.965l-0 0c-1.013 1.019-2.415 1.65-3.965 1.65-0.004 0-0.008 0-0.011 0h0.001c-0.003 0-0.007 0-0.010 0-1.55 0-2.952-0.631-3.965-1.649l-0-0z"></path>
<path fill="#6ceec7" style="fill: var(--color1, #6ceec7)" d="M14.945 6.25c-0.111 0.112-0.265 0.181-0.436 0.181-0.003 0-0.005-0-0.008-0h0c-0.001 0-0.002 0-0.004 0-0.344 0-0.622-0.279-0.622-0.622 0-0.172 0.070-0.327 0.182-0.44v0l0.012-0.013c0.113-0.113 0.269-0.183 0.441-0.183 0.344 0 0.623 0.279 0.623 0.623 0 0.172-0.070 0.328-0.182 0.441v0l-0.007 0.013z"></path>
<path fill="#fff" style="fill: var(--color2, #fff)" d="M8.438 19.082c0.058-0.020 0.125-0.031 0.194-0.031 0.275 0 0.509 0.179 0.592 0.426l0.001 0.004c0.020 0.058 0.031 0.125 0.031 0.195 0 0.275-0.179 0.509-0.427 0.591l-0.004 0.001c-3.47 1.144-5.539 2.85-5.539 4.575 0 1.456 1.501 2.93 4.126 4.043 2.832 1.2 6.601 1.863 10.627 1.863s7.802-0.662 10.627-1.863c2.619-1.112 4.126-2.587 4.126-4.044 0-1.219-1.051-2.456-2.963-3.487-1.981-1.069-4.782-1.85-7.889-2.2l-3.401 4.356c-0.116 0.145-0.293 0.238-0.492 0.238-0.001 0-0.001 0-0.002 0h0c-0.001 0-0.001 0-0.002 0-0.199 0-0.376-0.092-0.491-0.236l-0.001-0.001-1.712-2.194c-3.945 0.344-6.045 1.506-6.045 2.231 0 0.356 0.569 0.963 2.169 1.494 1.613 0.538 3.769 0.831 6.070 0.831s4.458-0.293 6.070-0.831c1.6-0.531 2.169-1.137 2.169-1.494 0-0.325-0.444-0.737-1.181-1.1-0.21-0.104-0.351-0.316-0.351-0.562 0-0.1 0.024-0.195 0.066-0.279l-0.002 0.004c0.104-0.21 0.316-0.351 0.562-0.351 0.1 0 0.195 0.024 0.279 0.066l-0.004-0.002c1.556 0.763 1.882 1.625 1.882 2.219 0 2.35-4.776 3.574-9.496 3.574s-9.496-1.231-9.496-3.574c0-1.944 3.245-3.006 6.389-3.394l-4.033-5.169c-1.274-1.567-2.047-3.587-2.049-5.787v-0.001c0.012-5.068 4.138-9.194 9.214-9.194 5.070 0 9.196 4.125 9.196 9.194 0 2.107-0.732 4.163-2.057 5.794-0.012 0.012-0.019 0.031-0.031 0.044l-2.319 2.969c2.963 0.406 5.626 1.194 7.583 2.25 2.369 1.281 3.619 2.869 3.619 4.594 0 2.013-1.731 3.856-4.882 5.194-2.982 1.262-6.934 1.962-11.122 1.962s-8.139-0.7-11.114-1.962c-3.15-1.338-4.882-3.182-4.882-5.194 0-2.325 2.332-4.425 6.395-5.762zM24.128 14.319c0.014-0.026 0.031-0.049 0.050-0.069v0c1.129-1.363 1.816-3.13 1.819-5.056v-0.001c0-4.381-3.569-7.944-7.946-7.944-4.381 0-7.951 3.562-7.951 7.944 0 1.825 0.631 3.606 1.782 5.012 0.006 0.013 0.012 0.019 0.024 0.031l6.139 7.869 6.082-7.788z"></path>
<path fill="#6ceec7" style="fill: var(--color1, #6ceec7)" d="M11.301 18.331l0.018-0.007c0.037-0.008 0.080-0.012 0.124-0.012 0.301 0 0.553 0.213 0.613 0.497l0.001 0.004c0.008 0.037 0.012 0.080 0.012 0.124 0 0.301-0.213 0.553-0.496 0.613l-0.004 0.001-0.019 0.007c-0.044 0.005-0.082 0.012-0.125 0.012-0.301-0.001-0.552-0.213-0.612-0.496l-0.001-0.004c-0.008-0.037-0.012-0.080-0.012-0.124 0-0.301 0.213-0.553 0.496-0.613l0.004-0.001zM23.384 21.812c-0.001 0-0.002 0-0.004 0-0.344 0-0.622-0.279-0.622-0.622 0-0.045 0.005-0.090 0.014-0.132l-0.001 0.004c0.061-0.287 0.312-0.499 0.613-0.499 0.044 0 0.087 0.005 0.128 0.013l-0.004-0.001c0.016 0.001 0.031 0.006 0.045 0.013l-0.001-0c0.331 0.094 0.531 0.431 0.437 0.769-0.079 0.265-0.32 0.455-0.606 0.456h-0z"></path>
</symbol>
<symbol id="icon-2" viewBox="0 0 35 32">
<path fill="#6ceec7" style="fill: var(--color1, #6ceec7)" d="M32.692 3.451c-0.171-0.505-0.605-0.878-1.135-0.958l-0.008-0.001-1.639-0.237-0.735-1.476c-0.237-0.465-0.712-0.778-1.26-0.778-0.003 0-0.005 0-0.008 0h0c-0.547 0-1.030 0.3-1.268 0.785l-0.735 1.476-1.638 0.236c-0.54 0.075-0.979 0.443-1.142 0.959-0.045 0.131-0.071 0.281-0.071 0.438 0 0.393 0.164 0.748 0.428 1l0.001 0.001 1.181 1.146-0.283 1.62c-0.013 0.072-0.021 0.156-0.021 0.241 0 0.467 0.23 0.88 0.582 1.133l0.004 0.003c0.231 0.168 0.52 0.269 0.833 0.269 0.242 0 0.47-0.060 0.669-0.167l-0.008 0.004 1.469-0.767 1.469 0.767c0.208 0.106 0.434 0.161 0.66 0.161 0.301 0 0.584-0.093 0.835-0.268 0.356-0.258 0.585-0.673 0.585-1.141 0-0.083-0.007-0.164-0.021-0.243l0.001 0.008-0.283-1.62 1.181-1.146c0.264-0.254 0.429-0.61 0.429-1.005 0-0.157-0.026-0.309-0.074-0.45l0.003 0.010zM31.405 3.942l-1.3 1.258c-0.245 0.237-0.351 0.573-0.295 0.904l0.308 1.775c0 0.012 0.006 0.050-0.032 0.081-0.044 0.031-0.075 0.012-0.088 0.006l-1.607-0.841c-0.139-0.073-0.303-0.117-0.477-0.118h-0c-0.163 0-0.333 0.044-0.477 0.118l-1.62 0.847c-0.012 0.006-0.044 0.024-0.087-0.007s-0.038-0.068-0.032-0.080l0.308-1.775c0.010-0.052 0.015-0.113 0.015-0.174 0-0.286-0.119-0.545-0.31-0.729l-0-0-1.3-1.258c-0.012-0.013-0.037-0.037-0.019-0.088 0.007-0.032 0.036-0.056 0.069-0.056h0l1.795-0.261c0.343-0.051 0.627-0.262 0.776-0.554l0.003-0.006 0.803-1.62c0.007-0.012 0.025-0.044 0.075-0.044 0.051 0 0.069 0.031 0.076 0.044l0.803 1.62c0.151 0.299 0.44 0.511 0.773 0.56l1.795 0.261c0.013 0 0.050 0.007 0.069 0.056 0.012 0.050-0.019 0.075-0.025 0.082z"></path>
<path fill="#fff" style="fill: var(--color2, #fff)" d="M12.287 16.2c-0.171-0.505-0.605-0.878-1.135-0.958l-0.008-0.001-1.639-0.237-0.735-1.476c-0.235-0.468-0.711-0.784-1.262-0.784-0.004 0-0.009 0-0.013 0h0.001c-0.547 0-1.030 0.299-1.268 0.784l-0.735 1.476-1.638 0.237c-0.54 0.075-0.98 0.443-1.142 0.959-0.045 0.131-0.071 0.281-0.071 0.438 0 0.393 0.164 0.748 0.428 1l0.001 0.001 1.187 1.146-0.283 1.619c-0.013 0.073-0.021 0.156-0.021 0.241 0 0.467 0.23 0.88 0.582 1.133l0.004 0.003c0.231 0.167 0.521 0.267 0.833 0.267 0.242 0 0.469-0.060 0.669-0.165l-0.008 0.004 1.469-0.766 1.469 0.766c0.192 0.103 0.42 0.163 0.662 0.163 0.313 0 0.601-0.101 0.836-0.272l-0.004 0.003c0.356-0.257 0.585-0.671 0.585-1.139 0-0.084-0.007-0.166-0.022-0.247l0.001 0.008-0.283-1.619 1.187-1.146c0.261-0.253 0.423-0.607 0.423-0.999 0-0.157-0.026-0.308-0.074-0.449l0.003 0.010zM11.001 16.691l-1.3 1.258c-0.245 0.237-0.351 0.573-0.295 0.904l0.308 1.775c0 0.012 0.006 0.050-0.031 0.081-0.044 0.031-0.076 0.012-0.088 0.006l-1.607-0.841c-0.139-0.074-0.305-0.117-0.48-0.117s-0.341 0.043-0.486 0.12l0.006-0.003-1.607 0.841c-0.014 0.006-0.044 0.024-0.088-0.007s-0.037-0.068-0.031-0.080l0.308-1.775c0.010-0.053 0.015-0.113 0.015-0.176 0-0.286-0.119-0.544-0.311-0.728l-0-0-1.312-1.258c-0.012-0.012-0.037-0.037-0.019-0.087 0.007-0.032 0.036-0.056 0.069-0.056h0l1.795-0.261c0.343-0.051 0.627-0.262 0.776-0.555l0.003-0.006 0.803-1.62c0.013-0.026 0.040-0.044 0.070-0.044 0.002 0 0.003 0 0.005 0h-0c0.051 0 0.069 0.031 0.076 0.044l0.803 1.619c0.151 0.3 0.44 0.511 0.773 0.561l1.795 0.261c0.013 0 0.050 0.007 0.069 0.056 0.002 0.008 0.004 0.017 0.004 0.026 0 0.023-0.009 0.045-0.023 0.061l0-0zM22.489 10.077c-0.172-0.505-0.605-0.877-1.135-0.958l-0.008-0.001-1.639-0.237-0.735-1.476c-0.234-0.468-0.71-0.784-1.26-0.784-0.003 0-0.006 0-0.008 0h0c-0.547 0-1.030 0.299-1.275 0.784l-0.735 1.476-1.638 0.237c-0.54 0.075-0.98 0.443-1.142 0.959-0.045 0.131-0.071 0.281-0.071 0.438 0 0.393 0.164 0.748 0.428 1l0.001 0.001 1.187 1.146-0.283 1.619c-0.013 0.072-0.021 0.156-0.021 0.241 0 0.467 0.23 0.88 0.582 1.133l0.004 0.003c0.231 0.167 0.521 0.267 0.833 0.267 0.242 0 0.469-0.060 0.669-0.165l-0.008 0.004 1.469-0.766 1.469 0.766c0.192 0.103 0.42 0.163 0.662 0.163 0.313 0 0.602-0.101 0.837-0.272l-0.004 0.003c0.44-0.318 0.654-0.841 0.565-1.377l-0.283-1.619 1.187-1.146c0.261-0.253 0.423-0.607 0.423-0.999 0-0.157-0.026-0.309-0.074-0.45l0.003 0.010zM21.202 10.569l-1.3 1.258c-0.245 0.237-0.351 0.573-0.295 0.903l0.308 1.775c0 0.012 0.006 0.050-0.032 0.081-0.044 0.031-0.075 0.012-0.088 0.006l-1.607-0.841c-0.139-0.073-0.303-0.117-0.477-0.118h-0.001c-0.163 0-0.333 0.037-0.477 0.118l-1.607 0.841c-0.014 0.006-0.044 0.024-0.088-0.007s-0.037-0.068-0.031-0.080l0.308-1.775c0.009-0.051 0.014-0.11 0.014-0.17 0-0.287-0.118-0.547-0.309-0.733l-0-0-1.3-1.258c-0.012-0.012-0.037-0.037-0.018-0.087s0.056-0.056 0.069-0.056l1.796-0.261c0.341-0.049 0.624-0.262 0.769-0.555l0.003-0.006 0.803-1.619c0.007-0.012 0.025-0.044 0.076-0.044s0.069 0.031 0.075 0.044l0.804 1.619c0.15 0.3 0.44 0.511 0.772 0.561l1.796 0.261c0.012 0 0.050 0.007 0.069 0.056 0.007 0.050-0.025 0.075-0.031 0.087z"></path>
<path fill="#fff" style="fill: var(--color2, #fff)" d="M34.393 28.375h-2.869v-8.047c0-0.368-0.302-0.66-0.665-0.66-0.366 0.001-0.662 0.295-0.666 0.66v8.048h-4.571v-15.696h4.571v1.943c0 0.368 0.302 0.66 0.666 0.66 0.365-0.001 0.661-0.296 0.665-0.66v-2.268c0-0.554-0.452-1.002-1.011-1.002h-5.224c-0.558 0-1.010 0.449-1.010 1.003v16.018h-2.964v-0.716c0-0.368-0.302-0.66-0.665-0.66-0.366 0.001-0.662 0.295-0.666 0.66v0.717h-4.571v-9.248h4.571v2.821c0 0.368 0.302 0.66 0.665 0.66 0.366-0.001 0.662-0.295 0.666-0.66v-3.146c0-0.554-0.452-1.002-1.011-1.002h-5.217c-0.558 0-1.010 0.448-1.010 1.002v9.567h-2.964v-3.999c0-0.554-0.452-1.002-1.011-1.002h-5.211c-0.559 0-1.011 0.448-1.011 1.002v3.999h-2.869c-0.559 0-1.011 0.449-1.011 1.003v1.625c0 0.554 0.452 1.003 1.011 1.003h33.382c0.559 0 1.011-0.449 1.011-1.003v-1.625c0-0.548-0.452-0.997-1.011-0.997zM5.211 24.701h4.571v3.675h-4.571v-3.675zM34.067 30.68h-32.73v-0.978h32.736v0.978h-0.007z"></path>
<path fill="#6ceec7" style="fill: var(--color1, #6ceec7)" d="M20.795 24.227l-0.019-0.007c-0.038-0.008-0.081-0.013-0.125-0.013-0.301 0-0.553 0.212-0.615 0.495l-0.001 0.004c-0.008 0.037-0.012 0.079-0.012 0.123 0 0.302 0.214 0.553 0.498 0.612l0.004 0.001 0.018 0.006c0.044 0.006 0.082 0.012 0.125 0.012 0 0 0 0 0 0 0.301 0 0.553-0.212 0.615-0.494l0.001-0.004c0.008-0.037 0.012-0.079 0.012-0.123 0-0.302-0.214-0.553-0.498-0.612l-0.004-0.001zM30.996 16.791l-0.018-0.007c-0.038-0.008-0.081-0.013-0.125-0.013-0.301 0-0.553 0.212-0.615 0.495l-0.001 0.004c-0.008 0.037-0.012 0.080-0.012 0.123 0 0.301 0.214 0.553 0.498 0.611l0.004 0.001 0.019 0.006c0.044 0.006 0.082 0.012 0.125 0.012 0 0 0 0 0 0 0.301 0 0.553-0.212 0.615-0.494l0.001-0.004c0.008-0.037 0.012-0.079 0.012-0.123 0-0.302-0.214-0.553-0.498-0.612l-0.004-0.001z"></path>
</symbol>
<symbol id="icon-3" viewBox="0 0 35 32">
<path fill="#6ceec7" style="fill: var(--color1, #6ceec7)" d="M13.417 8.906h6.545c0.338-0.005 0.61-0.28 0.61-0.618 0-0.002 0-0.003-0-0.005v0c0-0.001 0-0.003 0-0.005 0-0.339-0.272-0.614-0.61-0.618h-6.545c-0.338 0.005-0.61 0.28-0.61 0.618 0 0.002 0 0.003 0 0.005v-0c-0 0.004-0 0.008-0 0.012 0 0.337 0.273 0.61 0.61 0.611h0z"></path>
<path fill="#fff" style="fill: var(--color2, #fff)" d="M20.908 12.824h-7.491c-0.338 0.005-0.61 0.28-0.61 0.618 0 0.002 0 0.003 0 0.005v-0c0 0.342 0.275 0.622 0.61 0.622h7.491c0.338-0.005 0.61-0.28 0.61-0.618 0-0.002 0-0.003-0-0.005v0c0-0.001 0-0.003 0-0.004 0-0.339-0.272-0.614-0.61-0.618h-0zM23.012 17.993h-9.595c-0.338 0.005-0.61 0.28-0.61 0.618 0 0.002 0 0.003 0 0.005v-0c0 0.342 0.275 0.623 0.61 0.623h9.596c0.338-0.005 0.61-0.28 0.61-0.618 0-0.002 0-0.003-0-0.005v0c0-0.003 0-0.006 0-0.009 0-0.338-0.273-0.612-0.61-0.614h-0zM23.012 23.169h-9.595c-0.338 0.005-0.61 0.28-0.61 0.618 0 0.002 0 0.003 0 0.005v-0c0 0.342 0.275 0.622 0.61 0.622h9.596c0.338-0.005 0.61-0.28 0.61-0.618 0-0.001 0-0.003 0-0.004v0c0-0.005 0-0.011 0-0.016 0-0.335-0.272-0.607-0.607-0.607-0.001 0-0.003 0-0.004 0h0z"></path>
<path fill="#6ceec7" style="fill: var(--color1, #6ceec7)" d="M9.525 20.628c-0.338 0.005-0.61 0.28-0.61 0.618 0 0.001 0 0.003 0 0.004v-0c0 0.343 0.275 0.623 0.61 0.623 0.338-0.005 0.61-0.28 0.61-0.618 0-0.002 0-0.003-0-0.005v0c0-0.001 0-0.003 0-0.004 0-0.339-0.272-0.614-0.61-0.618h-0zM22.994 12.824c-0.338 0.005-0.61 0.28-0.61 0.618 0 0.002 0 0.003 0 0.005v-0c0 0.342 0.274 0.622 0.61 0.622 0.338-0.005 0.61-0.28 0.61-0.618 0-0.002 0-0.003-0-0.005v0c0-0.003 0-0.008 0-0.012 0-0.337-0.273-0.61-0.61-0.611h-0zM6.738 9.635c-0.338 0.005-0.61 0.28-0.61 0.618 0 0.002 0 0.003 0 0.005v-0c0 0.342 0.274 0.623 0.61 0.623 0.338-0.005 0.61-0.28 0.61-0.618 0-0.002 0-0.003-0-0.005v0c0-0.004 0-0.008 0-0.012 0-0.337-0.273-0.61-0.61-0.611h-0z"></path>
<path fill="#fff" style="fill: var(--color2, #fff)" d="M28.563 5.637l-0.007-0.007-0.012-0.012-4.215-4.696c-0.425-0.477-1.009-0.804-1.669-0.895l-0.014-0.002c-0.006 0-0.018 0-0.024-0.007-0.099-0.012-0.213-0.018-0.329-0.018-0.002 0-0.004 0-0.007 0h-11.114c-1.244 0-2.257 1.034-2.257 2.311v1.121h-0.774c-1.111 0-2.013 0.922-2.013 2.056v2.254c0 0.343 0.274 0.623 0.61 0.623 0.338-0.005 0.61-0.28 0.61-0.618 0-0.002 0-0.003-0-0.005v0-2.254c0-0.443 0.354-0.803 0.787-0.803h0.774v14.045c0 0.33 0.244 0.622 0.573 0.648 0.354 0.025 0.654-0.268 0.654-0.623v-16.443c0-0.586 0.463-1.058 1.036-1.058h10.595v4.72c0 0.941 0.744 1.701 1.665 1.701h4.618v18.989c0 0.586-0.463 1.059-1.037 1.059h-15.841c-0.573 0-1.037-0.474-1.037-1.059v-2.884c0-0.33-0.244-0.622-0.573-0.648-0.011-0.001-0.024-0.001-0.037-0.001-0.34 0-0.616 0.276-0.616 0.616 0 0.003 0 0.006 0 0.008v-0 2.909c0 1.277 1.013 2.31 2.263 2.31h12.871v0.978c0 0.443-0.354 0.803-0.787 0.803h-14.055c-1.025 0-1.848-0.847-1.848-1.887v-16.050c0-0.001 0-0.003 0-0.005 0-0.339-0.272-0.614-0.61-0.618h-0c-0.338 0.005-0.61 0.28-0.61 0.618 0 0.002 0 0.003 0 0.005v-0 16.044c0 1.731 1.379 3.139 3.074 3.139h14.054c1.11 0 2.013-0.922 2.013-2.055v-0.978h1.744c1.251 0 2.263-1.034 2.263-2.311v-19.12c-0.005-0.729-0.277-1.394-0.723-1.903l0.003 0.003zM23.433 6.42c-0.243-0.002-0.439-0.199-0.439-0.443 0-0.002 0-0.004 0-0.006v0-4.545c0.168 0.091 0.31 0.203 0.432 0.335l0.001 0.001 4.178 4.658h-4.172z"></path>
</symbol>
<symbol id="icon-4" viewBox="0 0 35 32">
<path fill="#6ceec7" style="fill: var(--color1, #6ceec7)" d="M9.35 12.145c0.114-0.115 0.184-0.273 0.184-0.448 0-0 0-0.001 0-0.001v0c-0.002-0.175-0.072-0.333-0.184-0.45l0 0c-0.116-0.114-0.275-0.184-0.45-0.184-0.001 0-0.002 0-0.002 0h0c-0.175 0.001-0.334 0.071-0.452 0.184l0-0c-0.114 0.115-0.184 0.273-0.184 0.448 0 0 0 0.001 0 0.001v-0c0 0.165 0.070 0.33 0.184 0.449 0.121 0.121 0.287 0.184 0.452 0.184 0.004 0 0.008 0 0.013 0 0.172 0 0.327-0.070 0.439-0.184l0-0zM22.332 30.727c-0.175 0.003-0.333 0.072-0.451 0.184l0-0c-0.114 0.115-0.184 0.273-0.184 0.448 0 0 0 0.001 0 0.001v-0c0 0.165 0.069 0.33 0.184 0.449 0.121 0.121 0.287 0.184 0.452 0.184 0.175-0.003 0.334-0.072 0.452-0.184l-0 0c0.114-0.115 0.184-0.273 0.184-0.448 0-0 0-0.001 0-0.001v0c-0.003-0.175-0.072-0.333-0.184-0.45l0 0c-0.118-0.112-0.277-0.181-0.452-0.184h-0zM19.636 7.773c-0.176 0.002-0.334 0.072-0.452 0.184l0-0c-0.114 0.115-0.184 0.273-0.184 0.447 0 0.001 0 0.001 0 0.002v-0c0 0.165 0.069 0.33 0.184 0.451 0.121 0.12 0.28 0.184 0.452 0.184 0.175-0.003 0.334-0.072 0.452-0.184l-0 0c0.114-0.115 0.184-0.273 0.184-0.447 0-0.001 0-0.002 0-0.003v0c-0.003-0.175-0.072-0.333-0.184-0.45l0 0c-0.118-0.112-0.276-0.181-0.451-0.184h-0z"></path>
<path fill="#fff" style="fill: var(--color2, #fff)" d="M30.805 16.136l3.142-5.29c0.059-0.095 0.094-0.211 0.094-0.334 0-0.061-0.009-0.12-0.025-0.177l0.001 0.005c-0.081-0.269-0.327-0.462-0.617-0.463h-6.856c-0.051 0-0.102 0.007-0.146 0.019v-5.049c0-0.348-0.286-0.633-0.636-0.633l-17.168 0.007c-0.185 0.001-0.335 0.15-0.337 0.335v3.979c0 0.336 0.255 0.633 0.598 0.659 0.369 0.025 0.681-0.266 0.681-0.633v-3.009h2.296v21.742h-2.296v-12.069c0-0.336-0.255-0.633-0.598-0.659-0.013-0.001-0.029-0.002-0.045-0.002-0.351 0-0.635 0.284-0.636 0.635v12.089h-1.524c-0.271 0-0.503 0.169-0.596 0.408l-0.002 0.004-1.127 3.028h-2.983c-0.338 0-0.637 0.253-0.662 0.595-0.001 0.012-0.001 0.025-0.001 0.039 0 0.352 0.285 0.638 0.637 0.639h17.657c0.337 0 0.636-0.253 0.662-0.596 0.001-0.011 0.001-0.025 0.001-0.038 0-0.353-0.285-0.638-0.638-0.639h-3.319l-1.126-3.022c-0.095-0.243-0.326-0.412-0.598-0.412h-1.526v-10.618h6.577v5.068c0 0.234 0.12 0.456 0.324 0.571 0.102 0.056 0.21 0.082 0.318 0.082h13.066c0.177 0 0.355-0.069 0.483-0.196 0.107-0.113 0.173-0.265 0.173-0.434 0-0.121-0.034-0.234-0.093-0.33l0.002 0.003-3.154-5.302zM14.191 28.566l0.808 2.16h-8.632l0.808-2.16h7.016zM13.122 15.402v-6.354h4.046c0.35-0 0.634-0.283 0.636-0.633v-0c0-0.349-0.286-0.634-0.636-0.634h-4.045v-2.294h12.002v9.921l-12.002-0.007zM20.965 16.675h3.301l-3.301 3.491v-3.491zM21.805 21.128l4.338-4.58c0.159-0.114 0.261-0.298 0.261-0.505 0-0 0-0.001 0-0.001v0-4.91c0.043 0.012 0.092 0.019 0.143 0.019 0.001 0 0.002 0 0.004 0h5.737l-2.774 4.669c-0.057 0.092-0.091 0.204-0.091 0.323s0.034 0.231 0.092 0.326l-0.002-0.003 2.774 4.669-10.482-0.007z"></path>
<path fill="#6ceec7" style="fill: var(--color1, #6ceec7)" d="M11.85 1.267v0.899h-2.322v-0.899h2.322zM12.486 0h-3.594c-0.35 0-0.634 0.283-0.636 0.633v2.173c0 0.349 0.286 0.633 0.636 0.633h3.594c0.35-0 0.634-0.283 0.636-0.633v-2.173c0-0.349-0.286-0.634-0.636-0.634z"></path>
</symbol>
</defs>
</svg>
