<svg aria-hidden="true" style="position: absolute; width: 0; height: 0; overflow: hidden;" version="1.1" xmlns="http://www.w3.org/2000/svg" xmlns:xlink="http://www.w3.org/1999/xlink">
<defs>
<symbol id="facebook-icon" viewBox="0 0 32 32">
<path  d="M13.723 25.6h3.721v-9.7h2.566l0.257-3.211h-2.887v-1.874c0-0.736 0.128-1.070 0.834-1.070h1.989v-3.345h-2.566c-2.759 0-3.979 1.271-3.979 3.68v2.609h-1.924v3.278h1.925v9.633h0.064z"></path>
</symbol>
<symbol id="insta-icon" viewBox="0 0 32 32">
<path fill="#fff" style="fill: var(--color1, #fff)" d="M16.002 8.159c2.565 0 2.859 0 3.884 0.074 0.954 0.073 1.467 0.22 1.76 0.292 0.439 0.147 0.733 0.367 1.099 0.733 0.367 0.367 0.513 0.66 0.733 1.099 0.147 0.367 0.293 0.807 0.293 1.76 0.074 1.026 0.074 1.318 0.074 3.884s0 2.859-0.074 3.884c-0.073 0.953-0.22 1.466-0.293 1.76-0.146 0.438-0.366 0.732-0.733 1.099-0.366 0.366-0.659 0.512-1.099 0.733-0.367 0.146-0.806 0.292-1.76 0.292-1.026 0.075-1.318 0.075-3.884 0.075s-2.859 0-3.885-0.075c-0.954-0.073-1.467-0.22-1.76-0.292-0.439-0.147-0.733-0.367-1.099-0.733-0.367-0.367-0.513-0.66-0.733-1.099-0.147-0.368-0.293-0.807-0.293-1.76-0.074-1.026-0.074-1.318-0.074-3.884s0-2.859 0.074-3.884c0.074-0.953 0.22-1.466 0.293-1.76 0.146-0.438 0.366-0.732 0.733-1.099 0.366-0.366 0.659-0.512 1.099-0.733 0.367-0.146 0.806-0.292 1.76-0.292 1.026-0.075 1.319-0.075 3.885-0.075zM16.002 6.4c-2.565 0-2.932 0-3.958 0.074-1.026 0.073-1.685 0.22-2.346 0.439-0.659 0.22-1.173 0.587-1.685 1.099-0.513 0.513-0.88 1.026-1.1 1.685-0.22 0.587-0.367 1.319-0.439 2.347-0.074 1.023-0.074 1.317-0.074 3.956 0 2.565 0 2.931 0.074 3.957 0.073 1.026 0.22 1.685 0.439 2.345 0.22 0.66 0.587 1.173 1.099 1.685 0.514 0.514 1.027 0.88 1.686 1.1 0.587 0.22 1.319 0.367 2.346 0.439 1.026 0.074 1.319 0.074 3.957 0.074 2.566 0 2.933 0 3.958-0.074 1.026-0.073 1.685-0.22 2.346-0.439 0.659-0.22 1.173-0.587 1.685-1.099 0.513-0.513 0.88-1.026 1.1-1.685 0.22-0.587 0.367-1.319 0.439-2.347 0.075-1.024 0.075-1.318 0.075-3.956 0-2.565 0-2.931-0.075-3.957-0.073-1.026-0.22-1.685-0.439-2.345-0.22-0.66-0.587-1.173-1.099-1.685-0.514-0.513-1.027-0.88-1.686-1.1-0.587-0.22-1.319-0.367-2.346-0.439-1.026-0.074-1.392-0.074-3.957-0.074z"></path>
<path fill="#fff" style="fill: var(--color1, #fff)" d="M16.001 11.017c-2.712 0-4.911 2.199-4.911 4.911s2.199 4.911 4.911 4.911v0c2.712 0 4.911-2.199 4.911-4.911s-2.199-4.911-4.911-4.911v0zM16.001 19.151c-0.007 0-0.015 0-0.022 0-1.728 0-3.129-1.401-3.129-3.129 0-0.008 0-0.016 0-0.024v0.001c-0-0.007-0-0.015-0-0.022 0-1.728 1.401-3.129 3.129-3.129 0.008 0 0.015 0 0.023 0h-0.001c0.007-0 0.016-0 0.025-0 1.728 0 3.129 1.401 3.129 3.129 0 0.008-0 0.016-0 0.024v-0.001c0 1.685-1.392 3.151-3.152 3.151zM22.231 10.869c0 0.661-0.512 1.173-1.173 1.173-0.659 0-1.172-0.512-1.172-1.173 0-0.659 0.513-1.171 1.173-1.171 0.659 0 1.173 0.512 1.173 1.172z"></path>
</symbol>
<symbol id="telegram-icon" viewBox="0 0 32 32">
<path fill="#fff" style="fill: var(--color1, #fff)" d="M23.301 8.592l-17.561 6.317c-0.569 0.205-0.533 0.959 0.051 1.118l4.463 1.216 1.664 4.879c0.175 0.51 0.875 0.665 1.28 0.283l2.306-2.175 4.527 3.068c0.555 0.375 1.343 0.096 1.483-0.525l2.998-13.233c0.147-0.647-0.544-1.188-1.212-0.947zM21.1 11.529l-8.157 6.659c-0.078 0.062-0.131 0.152-0.145 0.255l-0 0.002-0.314 2.577c-0.011 0.085-0.139 0.096-0.165 0.015l-1.292-3.843c-0.012-0.036-0.019-0.077-0.019-0.12 0-0.148 0.083-0.277 0.204-0.343l0.002-0.001 9.632-5.515c0.221-0.128 0.448 0.154 0.253 0.314z"></path>
</symbol>
<symbol id="twitter-icon" viewBox="0 0 32 32">
<path fill="#fff" style="fill: var(--color1, #fff)" d="M6.293 21.792c1.771 1.091 3.851 1.675 6.085 1.675 7.396 0 11.633-5.901 11.325-11.218 0.797-0.527 1.464-1.182 1.987-1.943l0.016-0.024c-0.676 0.297-1.46 0.504-2.281 0.58l-0.030 0.002c0.848-0.437 1.463-1.237 1.772-2.112-0.77 0.437-1.617 0.729-2.542 0.947-0.693-0.729-1.772-1.166-2.927-1.166-2.543 0-4.469 2.258-3.852 4.661-3.287-0.151-6.201-1.636-8.233-3.921l-0.010-0.012c-1.078 1.675-0.54 3.934 1.232 5.026-0.693 0-1.31-0.219-1.771-0.437-0.078 1.749 1.309 3.351 3.234 3.715-0.539 0.146-1.155 0.146-1.771 0.074 0.555 1.537 1.999 2.617 3.696 2.622h0.001c-1.695 1.166-3.852 1.749-5.932 1.531z"></path>
</symbol>
</defs>
</svg>
