<svg width="191" height="48" fill="none" xmlns="http://www.w3.org/2000/svg"><path d="M59.748 31.713c-.181.481-.362.962-.396 1.455-.064.955.076 1.936.255 2.891.075.477.17.953.266 1.428.244 1.212.487 2.423.396 3.667-.115 1.44-.573 2.764-1.948 3.414-.752.356-1.706.56-2.509.445-1.464-.19-2.915-.585-4.303-1.07-1.362-.483-2.598-.318-3.934.128-6.952 2.33-14.07 3.477-21.416 2.7a53.541 53.541 0 01-10.39-2.127 35.759 35.759 0 01-1.033-.346c-.676-.235-1.356-.47-2.048-.622-.586-.127-1.26-.064-1.859.076-.649.153-1.29.339-1.93.525-.967.282-1.932.563-2.92.724-2.65.433-4.406-1.02-4.648-3.681-.14-1.618.127-3.185.598-4.713.331-1.057 1.274-1.618 2.127-1.363.916.28 1.49 1.325 1.311 2.344-.041.235-.084.47-.127.707a36.271 36.271 0 00-.344 2.12c-.115.943.165 1.185 1.082.943 1.184-.319 2.368-.637 3.54-1.02 1.782-.572 3.476-.394 5.27.154a91.064 91.064 0 008.99 2.28c3.705.713 7.474.79 11.217.395a49.692 49.692 0 009.027-1.796c.583-.176 1.162-.369 1.743-.561a51.51 51.51 0 012.306-.726c1.273-.357 2.56-.153 3.82.204.412.12.823.243 1.234.365.768.23 1.534.46 2.305.667 1.095.305 1.35.127 1.248-.981-.057-.607-.173-1.209-.288-1.811-.064-.334-.129-.668-.183-1.004a93.194 93.194 0 01-.496-3.21c-.163-1.236.207-2.375.577-3.514.095-.293.19-.586.276-.88.904-3.108 1.324-6.28.725-9.49-.318-1.693-.79-3.375-1.298-5.03-.51-1.682-.255-3.325.012-4.98.08-.483.166-.962.254-1.44.152-.835.303-1.667.408-2.51.102-.802-.152-1.018-.967-.827-.562.128-1.115.292-1.67.456-.438.13-.878.26-1.322.372a43.01 43.01 0 00-.537.148c-.725.205-1.453.41-2.188.45-.84.039-1.719-.152-2.547-.369-1.045-.268-2.085-.566-3.125-.865-1.772-.508-3.544-1.015-5.341-1.377-4.24-.853-8.518-1.082-12.847-.547-4.367.535-8.57 1.643-12.707 3.006-.624.203-1.362.267-2 .14-1.616-.331-3.208-.764-4.786-1.236-1.656-.496-1.949-.28-1.656 1.452.109.648.222 1.293.335 1.938.164.94.33 1.881.48 2.826.217 1.35 0 2.624-.47 3.923-.981 2.7-1.02 5.426.012 8.152a14.745 14.745 0 002.865 4.687c1.871 2.076 4.163 3.592 6.862 4.369.892.255 1.806.43 2.72.606.456.087.913.175 1.367.273l-.069.024c-.103.036-.227.08-.35.09-3.35.383-6.622.153-9.69-1.375-3.094-1.541-5.284-3.923-6.748-7.044-1.643-3.503-1.63-7.094-.433-10.66.538-1.585.26-3.051-.02-4.53a35.959 35.959 0 01-.263-1.51c-.237-1.443-.474-2.89-.074-4.367.446-1.605 1.681-2.713 3.387-2.688 1.047.024 2.095.254 3.122.48l.252.055c.993.217 1.961.51 2.916.866.637.243 1.194.068 1.76-.11.147-.046.293-.092.443-.132.908-.242 1.812-.5 2.715-.757 1.948-.555 3.896-1.11 5.879-1.51 4.647-.93 9.358-1.133 14.107-.535 4.126.523 8.136 1.414 12.045 2.802 1.159.42 2.203.293 3.31-.038.265-.08.53-.164.796-.247.822-.258 1.652-.519 2.49-.72 1.145-.281 2.317-.345 3.424.19 1.414.688 2 1.936 2.088 3.388.051 1.007-.089 2.026-.229 3.032-.076.554-.184 1.108-.291 1.663-.143.733-.286 1.47-.358 2.209-.071.664.09 1.35.245 2.016l.035.15c.156.66.33 1.318.505 1.978.182.687.364 1.376.526 2.072.064.254-.05.598-.203.815-.471.713-.471 1.197.203 1.707.37.28.459.61.484 1.031.14 2.93-.318 5.796-1.146 8.598-.072.242-.162.482-.253.723z" fill="#fff"/><path d="M37.452 19.36l.306 2.14c.102.689.522 1.045 1.184 1.134l.05.008c.914.137 1.839.277 2.751.515-.293.046-.586.097-.878.148a31.35 31.35 0 01-1.757.272c-.892.114-1.235.395-1.375 1.286-.079.505-.145 1.003-.212 1.504-.03.232-.062.465-.094.7-.013.14-.077.267-.255.395a8.567 8.567 0 01-.089-.51c-.04-.266-.077-.534-.114-.802-.069-.503-.138-1.01-.23-1.516-.114-.65-.522-.955-1.171-1.044-.62-.077-1.24-.176-1.859-.275-.31-.05-.62-.1-.93-.146v-.114c.459-.07.914-.137 1.37-.204.455-.067.91-.134 1.368-.204.84-.127 1.133-.408 1.273-1.248.079-.505.145-1.003.212-1.504.03-.232.062-.465.094-.7a.569.569 0 01.255-.395l.016.082c.033.161.064.315.085.479zM43.834 18.1c-.04-.289-.08-.578-.13-.866-.064-.37-.293-.535-.675-.586-.34-.042-.674-.094-1.01-.146-.18-.028-.361-.057-.543-.083v-.064l1.528-.23c.47-.063.636-.216.713-.687.032-.204.057-.408.082-.612.026-.203.051-.407.083-.611a.33.33 0 01.14-.216c.026.101.051.203.064.305.05.408.102.803.165 1.197.064.383.293.586.663.637.521.077 1.044.153 1.566.293l-.46.075c-.331.055-.665.111-1.005.155-.496.063-.687.216-.764.713-.05.407-.101.815-.165 1.223-.013.076-.038.14-.14.216a1.88 1.88 0 01-.047-.25l-.004-.03a45.51 45.51 0 01-.06-.433zM128.182 30.877c.713.364 1.591.546 2.634.546h2.112c.174 0 .322-.061.443-.182a.6.6 0 00.183-.442v-1.612a.6.6 0 00-.183-.442.602.602 0 00-.443-.182h-1.799c-.626 0-1.069-.2-1.33-.598-.243-.399-.365-.954-.365-1.664v-5.642h3.259c.174 0 .322-.061.444-.182a.635.635 0 00.182-.468v-1.482a.603.603 0 00-.182-.442.606.606 0 00-.444-.182h-3.259v-4.316a.6.6 0 00-.183-.442.602.602 0 00-.443-.182h-2.112a.635.635 0 00-.469.182.652.652 0 00-.157.442v4.316h-2.06a.605.605 0 00-.443.182.599.599 0 00-.182.442v1.482c0 .19.06.346.182.468.122.121.27.182.443.182h2.06v5.902c0 1.074.174 1.976.522 2.704a3.49 3.49 0 001.59 1.612z" fill="#fff"/><path fill-rule="evenodd" clip-rule="evenodd" d="M78.432 31.24c.122.122.27.183.444.183h7.77c1.356 0 2.494-.226 3.416-.676.921-.468 1.616-1.11 2.086-1.924.469-.815.704-1.742.704-2.782 0-1.006-.261-1.872-.783-2.6-.521-.728-1.12-1.248-1.799-1.56.33-.174.66-.416.991-.728.348-.312.635-.711.86-1.196.244-.503.366-1.084.366-1.742 0-.988-.218-1.855-.652-2.6-.417-.746-1.07-1.326-1.956-1.742-.886-.434-2.034-.65-3.442-.65h-7.561a.604.604 0 00-.444.182.632.632 0 00-.182.468v16.926c0 .173.06.32.182.442zm7.797-2.573h-4.355v-5.278h4.355c.921 0 1.625.251 2.112.754.504.502.756 1.135.756 1.898 0 .728-.243 1.352-.73 1.872-.487.502-1.2.754-2.138.754zm-.261-7.982h-4.094v-4.732h4.094c.921 0 1.608.208 2.06.624.47.416.704.988.704 1.716 0 .71-.235 1.291-.704 1.742-.452.433-1.139.65-2.06.65zM97.064 30.019c1.13 1.109 2.66 1.664 4.589 1.664.974 0 1.834-.122 2.582-.364.764-.26 1.399-.581 1.903-.962.504-.382.887-.772 1.147-1.17.278-.399.426-.737.444-1.014a.425.425 0 00-.157-.39.564.564 0 00-.417-.156h-2.242c-.192 0-.339.026-.444.078-.087.034-.208.156-.365.364a3.31 3.31 0 01-1.251.988c-.331.138-.739.208-1.226.208-.591 0-1.104-.156-1.538-.468a3.06 3.06 0 01-.965-1.222 4.88 4.88 0 01-.34-1.69v-.208h8.658c.191 0 .347-.061.469-.182a.6.6 0 00.183-.442v-.546c0-1.352-.244-2.54-.73-3.562-.487-1.04-1.209-1.846-2.165-2.418-.956-.59-2.138-.884-3.546-.884-1.269 0-2.373.26-3.311.78a5.476 5.476 0 00-2.217 2.184c-.521.936-.817 2.062-.886 3.38a6.22 6.22 0 00-.026.65c0 .26.008.476.026.65.087 2.045.695 3.622 1.825 4.732zm7.483-6.526h-5.762v-.078c0-.676.104-1.266.313-1.768.226-.52.556-.919.991-1.196.434-.295.956-.442 1.564-.442.609 0 1.13.147 1.565.442.434.277.765.676.991 1.196.226.502.338 1.092.338 1.768v.078z" fill="#fff"/><path d="M115.998 31.683c-1.043 0-1.938-.122-2.685-.364-.731-.243-1.33-.546-1.8-.91-.469-.364-.817-.728-1.043-1.092-.226-.364-.347-.668-.365-.91-.017-.191.035-.338.157-.442a.665.665 0 01.443-.182h2.06c.069 0 .13.008.182.026.053.017.122.069.209.156.226.19.461.39.704.598.261.208.565.39.913.546.347.138.782.208 1.303.208.678 0 1.243-.13 1.695-.39.47-.278.704-.668.704-1.17 0-.364-.104-.659-.313-.884-.191-.226-.556-.425-1.095-.598-.539-.191-1.303-.39-2.294-.598-.974-.226-1.782-.512-2.425-.858-.643-.347-1.121-.78-1.434-1.3-.313-.52-.47-1.127-.47-1.82 0-.676.2-1.318.6-1.924.417-.624 1.026-1.136 1.825-1.534.817-.399 1.825-.598 3.025-.598.939 0 1.756.121 2.451.364.695.225 1.269.511 1.721.858.469.346.826.702 1.069 1.066.243.346.374.65.391.91a.559.559 0 01-.156.468.626.626 0 01-.418.156h-1.929a.522.522 0 01-.235-.052 1.369 1.369 0 01-.208-.13c-.192-.174-.4-.356-.626-.546a2.836 2.836 0 00-.835-.52c-.312-.139-.73-.208-1.251-.208-.661 0-1.165.147-1.512.442a1.303 1.303 0 00-.522 1.066c0 .294.078.554.235.78.174.208.512.407 1.017.598.504.19 1.269.39 2.294.598 1.165.208 2.086.52 2.764.936.695.398 1.182.866 1.46 1.404.296.52.444 1.1.444 1.742 0 .78-.235 1.482-.704 2.106-.452.624-1.13 1.118-2.034 1.482-.887.346-1.991.52-3.312.52z" fill="#fff"/><path fill-rule="evenodd" clip-rule="evenodd" d="M136.806 31.423a.606.606 0 01-.444-.182.603.603 0 01-.182-.442V13.873c0-.191.061-.347.182-.468a.606.606 0 01.444-.182h6.753c2.103 0 3.763.485 4.98 1.456 1.217.97 1.826 2.383 1.826 4.238 0 1.282-.322 2.348-.965 3.198-.626.849-1.469 1.464-2.53 1.846l3.807 6.63c.053.104.079.199.079.286a.492.492 0 01-.183.39.5.5 0 01-.365.156h-2.373c-.295 0-.521-.078-.678-.234a2.162 2.162 0 01-.365-.468l-3.363-6.162h-3.625v6.24c0 .173-.061.32-.182.442-.105.121-.252.182-.444.182h-2.372zm2.998-9.802h3.677c1.06 0 1.851-.234 2.373-.702.521-.486.782-1.162.782-2.028 0-.867-.261-1.543-.782-2.028-.505-.503-1.295-.754-2.373-.754h-3.677v5.512zM154.51 30.019c1.13 1.109 2.66 1.664 4.589 1.664.974 0 1.834-.122 2.582-.364.765-.26 1.399-.581 1.903-.962.504-.382.887-.772 1.148-1.17.278-.399.425-.737.443-1.014a.425.425 0 00-.157-.39.564.564 0 00-.417-.156h-2.242c-.191 0-.339.026-.444.078-.086.034-.208.156-.365.364a3.252 3.252 0 01-.443.468 3.24 3.24 0 01-.808.52c-.33.138-.739.208-1.226.208-.591 0-1.104-.156-1.538-.468a3.065 3.065 0 01-.965-1.222 4.907 4.907 0 01-.339-1.69v-.208h8.657c.191 0 .348-.061.469-.182a.6.6 0 00.183-.442v-.546c0-1.352-.243-2.54-.73-3.562-.487-1.04-1.208-1.846-2.164-2.418-.957-.59-2.139-.884-3.547-.884-1.269 0-2.372.26-3.311.78a5.468 5.468 0 00-2.216 2.184c-.522.936-.817 2.062-.887 3.38a6.338 6.338 0 00-.026.65c0 .26.009.476.026.65.087 2.045.695 3.622 1.825 4.732zm7.484-6.526h-5.763v-.078c0-.676.104-1.266.313-1.768.226-.52.556-.919.991-1.196.434-.295.956-.442 1.564-.442.609 0 1.13.147 1.565.442.434.277.765.676.991 1.196.226.502.339 1.092.339 1.768v.078z" fill="#fff"/><path d="M173.444 31.683c-1.043 0-1.938-.122-2.685-.364-.73-.243-1.33-.546-1.799-.91-.47-.364-.817-.728-1.043-1.092-.226-.364-.348-.668-.365-.91-.018-.191.034-.338.156-.442a.665.665 0 01.443-.182h2.06c.07 0 .131.008.183.026.052.017.121.069.208.156.226.19.461.39.704.598.261.208.565.39.913.546.348.138.782.208 1.304.208.678 0 1.243-.13 1.695-.39.469-.278.704-.668.704-1.17 0-.364-.105-.659-.313-.884-.192-.226-.557-.425-1.095-.598-.539-.191-1.304-.39-2.295-.598-.974-.226-1.782-.512-2.425-.858-.643-.347-1.121-.78-1.434-1.3-.313-.52-.469-1.127-.469-1.82 0-.676.199-1.318.599-1.924.417-.624 1.026-1.136 1.825-1.534.817-.399 1.826-.598 3.025-.598.939 0 1.756.121 2.451.364.696.225 1.269.511 1.721.858.469.346.826.702 1.069 1.066.244.346.374.65.391.91a.553.553 0 01-.156.468.625.625 0 01-.417.156h-1.93a.522.522 0 01-.235-.052 1.369 1.369 0 01-.208-.13c-.191-.174-.4-.356-.626-.546a2.844 2.844 0 00-.834-.52c-.313-.139-.73-.208-1.252-.208-.66 0-1.165.147-1.512.442a1.303 1.303 0 00-.522 1.066c0 .294.078.554.235.78.174.208.513.407 1.017.598.504.19 1.269.39 2.294.598 1.165.208 2.086.52 2.764.936.696.398 1.182.866 1.461 1.404.295.52.443 1.1.443 1.742 0 .78-.235 1.482-.704 2.106-.452.624-1.13 1.118-2.034 1.482-.887.346-1.99.52-3.312.52zM185.629 30.877c.712.364 1.59.546 2.633.546h2.112c.174 0 .322-.061.443-.182a.6.6 0 00.183-.442v-1.612a.6.6 0 00-.183-.442.602.602 0 00-.443-.182h-1.799c-.626 0-1.069-.2-1.33-.598-.243-.399-.365-.954-.365-1.664v-5.642h3.259c.174 0 .322-.061.444-.182a.635.635 0 00.182-.468v-1.482a.603.603 0 00-.182-.442.606.606 0 00-.444-.182h-3.259v-4.316a.603.603 0 00-.182-.442.606.606 0 00-.444-.182h-2.112a.636.636 0 00-.469.182.657.657 0 00-.157.442v4.316h-2.059a.606.606 0 00-.444.182.603.603 0 00-.182.442v1.482c0 .19.061.346.182.468.122.121.27.182.444.182h2.059v5.902c0 1.074.174 1.976.522 2.704.348.71.878 1.248 1.591 1.612z" fill="#fff"/></svg>