<svg width="30" height="30" fill="none" xmlns="http://www.w3.org/2000/svg"><path d="M15.002 7.649c2.405 0 2.68 0 3.641.069.894.068 1.375.206 1.65.274.412.138.687.344 1.03.687.344.344.481.619.687 1.03.138.344.275.757.275 1.65.069.962.069 1.236.069 3.641 0 2.405 0 2.68-.069 3.641-.068.893-.206 1.374-.275 1.65-.137.411-.343.686-.687 1.03-.343.343-.618.48-1.03.687-.344.137-.756.274-1.65.274-.962.07-1.236.07-3.641.07-2.405 0-2.68 0-3.642-.07-.894-.068-1.375-.206-1.65-.274-.412-.138-.687-.344-1.03-.687-.344-.344-.481-.619-.687-1.03-.138-.345-.275-.757-.275-1.65-.069-.962-.069-1.236-.069-3.641 0-2.405 0-2.68.069-3.641.069-.893.206-1.374.275-1.65.137-.411.343-.686.687-1.03.343-.343.618-.48 1.03-.687.344-.137.756-.274 1.65-.274.962-.07 1.237-.07 3.642-.07zm0-1.649c-2.405 0-2.749 0-3.711.069-.962.068-1.58.206-2.199.412-.618.206-1.1.55-1.58 1.03-.481.481-.825.962-1.031 1.58-.206.55-.344 1.237-.412 2.2C6 12.25 6 12.526 6 15c0 2.405 0 2.748.069 3.71.068.962.206 1.58.412 2.198.206.619.55 1.1 1.03 1.58.482.482.963.825 1.581 1.031.55.206 1.237.344 2.199.412.962.069 1.237.069 3.71.069 2.406 0 2.75 0 3.711-.069.962-.068 1.58-.206 2.199-.412.618-.206 1.1-.55 1.58-1.03.481-.481.825-.962 1.031-1.58.206-.55.344-1.237.412-2.2.07-.96.07-1.236.07-3.709 0-2.405 0-2.748-.07-3.71-.068-.962-.206-1.58-.412-2.198-.206-.619-.55-1.1-1.03-1.58-.482-.481-.963-.825-1.581-1.031-.55-.206-1.237-.344-2.199-.412C17.75 6 17.407 6 15.002 6z" fill="#fff"/><path d="M15.001 10.328a4.604 4.604 0 100 9.208 4.604 4.604 0 000-9.208zm0 7.626A2.933 2.933 0 0112.047 15 2.933 2.933 0 0115 12.046 2.933 2.933 0 0117.956 15c0 1.58-1.305 2.954-2.955 2.954zM20.842 10.19c0 .62-.48 1.1-1.1 1.1-.618 0-1.099-.48-1.099-1.1 0-.618.481-1.098 1.1-1.098.618 0 1.1.48 1.1 1.099z" fill="#fff"/></svg>