<svg width="30" height="30" fill="none" xmlns="http://www.w3.org/2000/svg"><path d="M5.9 20.43C7.56 21.453 9.51 22 11.605 22c6.934 0 10.906-5.532 10.617-10.517A6.723 6.723 0 0024.1 9.639a7.15 7.15 0 01-2.167.546c.795-.41 1.372-1.16 1.661-1.98-.722.41-1.516.683-2.383.888C20.561 8.41 19.55 8 18.467 8c-2.384 0-4.19 2.117-3.611 4.37a10.98 10.98 0 01-7.728-3.687c-1.011 1.57-.506 3.688 1.155 4.712-.65 0-1.228-.205-1.66-.41-.073 1.64 1.227 3.142 3.032 3.483-.505.137-1.083.137-1.66.069a3.688 3.688 0 003.466 2.458C9.872 20.088 7.85 20.635 5.9 20.43z" fill="#fff"/></svg>