<svg width="52" height="47" fill="none" xmlns="http://www.w3.org/2000/svg"><path d="M48.016 5.068a2.09 2.09 0 00-1.678-1.409l-2.407-.348-1.079-2.168A2.07 2.07 0 0040.99 0c-.803 0-1.513.44-1.863 1.153l-1.08 2.168-2.406.347c-.793.11-1.438.65-1.678 1.409a2.029 2.029 0 00.525 2.113l1.734 1.683-.415 2.379a2.046 2.046 0 00.83 2.021 2.09 2.09 0 002.195.156l2.157-1.126 2.158 1.126c.305.155.637.237.969.237.442 0 .857-.137 1.226-.393a2.064 2.064 0 00.83-2.021l-.415-2.379 1.734-1.683a2.044 2.044 0 00.525-2.122zm-1.89.722l-1.909 1.848c-.36.348-.516.842-.433 1.327l.452 2.607c0 .018.009.073-.047.119-.064.045-.11.018-.129.009l-2.36-1.235a1.556 1.556 0 00-.701-.174c-.24 0-.489.064-.701.174l-2.38 1.244c-.018.009-.064.036-.128-.01-.065-.045-.056-.1-.047-.118l.452-2.607a1.488 1.488 0 00-.433-1.327L35.853 5.8c-.018-.019-.055-.055-.028-.129a.105.105 0 01.102-.082l2.637-.384a1.523 1.523 0 001.144-.823l1.18-2.379c.01-.018.037-.064.11-.064.075 0 .102.046.111.064l1.18 2.379c.222.439.646.75 1.135.823l2.637.384c.019 0 .074.01.102.082.018.074-.028.11-.037.12z" fill="#6CEEC7"/><path d="M18.047 23.793a2.09 2.09 0 00-1.679-1.409l-2.407-.348-1.079-2.168a2.066 2.066 0 00-1.871-1.152c-.803 0-1.513.439-1.863 1.152l-1.08 2.168-2.406.348c-.793.11-1.439.65-1.678 1.409a2.029 2.029 0 00.525 2.113l1.743 1.683-.415 2.378a2.046 2.046 0 00.83 2.022 2.105 2.105 0 002.195.155l2.158-1.125 2.158 1.125a2.09 2.09 0 002.194-.155 2.056 2.056 0 00.83-2.022l-.415-2.378 1.743-1.683a2.043 2.043 0 00.517-2.113zm-1.89.722l-1.91 1.848c-.36.348-.516.842-.433 1.327l.452 2.607c0 .018.009.073-.046.119-.065.045-.111.018-.13.009l-2.36-1.235a1.536 1.536 0 00-1.411 0l-2.36 1.235c-.02.009-.065.036-.13-.01-.064-.045-.055-.1-.046-.118l.452-2.607a1.48 1.48 0 00-.434-1.327l-1.927-1.848c-.018-.018-.055-.055-.028-.128a.105.105 0 01.102-.082l2.637-.384a1.523 1.523 0 001.144-.823l1.18-2.379a.115.115 0 01.11-.064c.075 0 .102.046.111.064l1.18 2.378c.222.44.646.75 1.135.824l2.637.384c.019 0 .074.01.102.082a.136.136 0 01-.028.128zM33.031 14.8a2.09 2.09 0 00-1.678-1.408l-2.407-.348-1.079-2.168a2.062 2.062 0 00-1.862-1.152c-.803 0-1.513.439-1.872 1.152l-1.08 2.168-2.406.348c-.793.11-1.439.65-1.678 1.409a2.029 2.029 0 00.525 2.113l1.743 1.683-.415 2.378a2.046 2.046 0 00.83 2.022 2.105 2.105 0 002.195.155l2.158-1.125 2.157 1.125a2.09 2.09 0 002.195-.155c.646-.467.96-1.235.83-2.022l-.415-2.378 1.743-1.683a2.043 2.043 0 00.516-2.113zm-1.89.723l-1.909 1.848c-.36.348-.516.842-.433 1.327l.452 2.607c0 .018.009.073-.047.119-.064.045-.11.018-.129.009l-2.36-1.235a1.557 1.557 0 00-.701-.174c-.24 0-.489.055-.701.174l-2.36 1.235c-.02.009-.065.036-.13-.01-.064-.045-.055-.1-.046-.118l.452-2.607a1.505 1.505 0 00-.433-1.327l-1.91-1.848c-.018-.018-.055-.054-.027-.128.028-.073.083-.082.101-.082l2.638-.384a1.493 1.493 0 001.134-.824l1.18-2.378c.01-.018.037-.064.111-.064.074 0 .102.046.11.064l1.181 2.378c.221.44.646.75 1.134.824l2.638.384c.018 0 .073.01.101.082.01.074-.037.11-.046.128z" fill="#fff"/><path d="M50.515 41.676h-4.214V29.857c0-.54-.443-.97-.977-.97a.98.98 0 00-.978.97v11.82h-6.713V18.623h6.713v2.854c0 .54.443.97.978.97a.98.98 0 00.977-.97v-3.33c0-.813-.664-1.472-1.485-1.472h-7.672c-.82 0-1.484.659-1.484 1.473v23.527h-4.353v-1.052c0-.54-.443-.97-.977-.97a.98.98 0 00-.978.97v1.052h-6.713V28.092h6.713v4.144c0 .54.443.97.977.97a.98.98 0 00.978-.97v-4.62c0-.814-.664-1.472-1.485-1.472H22.16c-.82 0-1.484.658-1.484 1.472v14.051h-4.353v-5.873c0-.814-.664-1.472-1.485-1.472H7.184c-.821 0-1.485.658-1.485 1.472v5.873H1.485C.664 41.667 0 42.326 0 43.14v2.387C0 46.341.664 47 1.485 47h49.03c.821 0 1.485-.659 1.485-1.473V43.14c0-.805-.664-1.464-1.485-1.464zM7.654 36.28h6.713v5.397H7.654V36.28zm42.382 8.782H1.964v-1.437h48.081v1.437h-.01z" fill="#fff"/><path d="M30.542 35.584l-.028-.01a.924.924 0 00-1.088.714.917.917 0 00.72 1.08l.027.009c.064.009.12.018.184.018a.924.924 0 00.904-.732.917.917 0 00-.72-1.08zM45.526 24.662l-.027-.01a.924.924 0 00-1.088.714.917.917 0 00.719 1.08l.028.009c.064.009.12.018.184.018a.924.924 0 00.904-.732.917.917 0 00-.72-1.08z" fill="#6CEEC7"/></svg>