<svg width="52" height="47" fill="none" xmlns="http://www.w3.org/2000/svg"><g clip-path="url(#clip0)"><path d="M19.706 13.081h9.613a.908.908 0 00.896-.915.908.908 0 00-.896-.915h-9.613a.908.908 0 00-.896.915.897.897 0 00.896.915z" fill="#6CEEC7"/><path d="M30.708 18.835H19.706a.908.908 0 00-.896.915c0 .503.404.914.896.914h11.002a.908.908 0 00.896-.915.908.908 0 00-.896-.914zM33.799 26.427H19.706a.908.908 0 00-.896.915c0 .503.404.915.896.915H33.8a.908.908 0 00.896-.915.902.902 0 00-.896-.915zM33.799 34.029H19.706a.908.908 0 00-.896.915c0 .503.404.914.896.914H33.8a.908.908 0 00.896-.914.891.891 0 00-.896-.915z" fill="#fff"/><path d="M13.99 30.297a.908.908 0 00-.896.914c0 .504.404.915.896.915a.908.908 0 00.896-.915.908.908 0 00-.896-.914zM33.772 18.835a.908.908 0 00-.896.915c0 .503.403.914.896.914a.908.908 0 00.896-.915.897.897 0 00-.896-.914zM9.896 14.151a.908.908 0 00-.896.915c0 .503.403.915.896.915a.908.908 0 00.896-.915.897.897 0 00-.896-.915z" fill="#6CEEC7"/><path d="M41.952 8.279l-.01-.01-.017-.018-.296-.33-5.895-6.567A4.02 4.02 0 0033.261.037c-.009 0-.027 0-.036-.01A4.328 4.328 0 0032.733 0H16.409c-1.827 0-3.315 1.518-3.315 3.394V5.04h-1.137C10.325 5.04 9 6.394 9 8.06v3.311c0 .504.403.915.896.915a.908.908 0 00.896-.915V8.06c0-.65.52-1.18 1.156-1.18h1.137v20.628c0 .484.359.914.842.951.52.037.96-.393.96-.915V3.393c0-.86.68-1.554 1.522-1.554h15.562v6.933c0 1.382 1.093 2.498 2.446 2.498H41.2v27.89c0 .86-.68 1.556-1.523 1.556H16.41c-.842 0-1.523-.696-1.523-1.555v-4.236c0-.485-.358-.914-.842-.951a.905.905 0 00-.959.915v4.272c0 1.875 1.488 3.393 3.324 3.393h18.904v1.436c0 .65-.52 1.18-1.156 1.18H13.515c-1.505 0-2.714-1.244-2.714-2.771V18.826a.908.908 0 00-.896-.915.908.908 0 00-.896.915V42.39c0 2.543 2.025 4.61 4.515 4.61h20.642c1.63 0 2.957-1.354 2.957-3.019v-1.436h2.562c1.837 0 3.324-1.518 3.324-3.394V11.068a4.29 4.29 0 00-1.057-2.79zM34.417 9.43a.65.65 0 01-.645-.659V2.095a2.4 2.4 0 01.636.494l5.707 6.366.43.476h-6.128z" fill="#fff"/></g><defs><clipPath id="clip0"><path fill="#fff" transform="translate(9)" d="M0 0h34v47H0z"/></clipPath></defs></svg>