<svg width="52" height="47" fill="none" xmlns="http://www.w3.org/2000/svg"><g clip-path="url(#clip0)"><path d="M13.733 17.838a.935.935 0 00.271-.66.976.976 0 00-.27-.661.943.943 0 00-.664-.27.967.967 0 00-.663.27.935.935 0 00-.271.66c0 .242.103.484.27.66.178.178.421.27.664.27a.904.904 0 00.663-.27zM32.8 45.13a.984.984 0 00-.662.27.935.935 0 00-.271.66c0 .242.102.484.27.66.178.178.421.27.664.27a.984.984 0 00.663-.27.935.935 0 00.271-.66.976.976 0 00-.27-.66.984.984 0 00-.664-.27zM28.84 11.417a.984.984 0 00-.664.27.935.935 0 00-.27.66c0 .243.102.485.27.662.178.176.412.27.664.27a.984.984 0 00.663-.27.935.935 0 00.27-.661.976.976 0 00-.27-.66.984.984 0 00-.663-.27z" fill="#6CEEC7"/><path d="M45.245 23.7l4.615-7.77a.947.947 0 00.103-.744.947.947 0 00-.907-.68h-10.07c-.075 0-.15.01-.215.028V7.118c0-.511-.42-.93-.934-.93H14.9l-2.279.01a.497.497 0 00-.495.492v5.844c0 .493.374.93.878.968.542.037 1-.391 1-.93v-4.42h3.372v31.934h-3.372V22.36c0-.493-.374-.93-.879-.968a.934.934 0 00-1 .93v17.755H9.886a.94.94 0 00-.878.605L7.353 45.13H2.972c-.496 0-.935.372-.972.874a.939.939 0 00.934.996h25.934c.495 0 .934-.372.972-.875a.939.939 0 00-.935-.995H24.03l-1.654-4.439a.94.94 0 00-.878-.605h-2.242V24.491h9.66v7.444c0 .344.177.67.476.838.15.083.309.12.467.12h19.19c.26 0 .522-.102.71-.288a.925.925 0 00.12-1.117L45.246 23.7zM20.843 41.957l1.187 3.173H9.352l1.187-3.173h10.304zm-1.57-19.336v-9.333h5.942a.935.935 0 00.934-.93c0-.513-.42-.931-.934-.931h-5.941V8.058h17.628V22.63H19.274v-.01zm11.52 1.87h4.848l-4.848 5.127v-5.127zm1.233 6.541l6.371-6.727a.911.911 0 00.383-.744v-7.212a.8.8 0 00.215.028h8.427l-4.074 6.858a.912.912 0 000 .949l4.074 6.858H32.026v-.01z" fill="#fff"/><path d="M17.405 1.861v1.321h-3.41V1.861h3.41zM18.339 0h-5.278a.935.935 0 00-.934.93v3.192c0 .512.42.93.934.93h5.278a.935.935 0 00.934-.93V.931c0-.512-.42-.931-.934-.931z" fill="#6CEEC7"/></g><defs><clipPath id="clip0"><path fill="#fff" transform="translate(2)" d="M0 0h48v47H0z"/></clipPath></defs></svg>