<svg width="52" height="47" fill="none" xmlns="http://www.w3.org/2000/svg"><path d="M20.665 19.544a8.279 8.279 0 01-2.084-8.189.924.924 0 011.139-.624.924.924 0 01.624 1.138 6.438 6.438 0 001.616 6.371 6.39 6.39 0 004.545 1.882 6.39 6.39 0 004.544-1.882 6.387 6.387 0 001.883-4.544c0-1.716-.67-3.332-1.883-4.544a6.42 6.42 0 00-6.372-1.615.915.915 0 11-.523-1.754 8.242 8.242 0 018.19 2.084 8.208 8.208 0 012.424 5.838 8.208 8.208 0 01-2.424 5.839 8.211 8.211 0 01-5.84 2.423 8.211 8.211 0 01-5.839-2.423z" fill="#6CEEC7"/><path d="M21.95 9.18a.902.902 0 01-.651.266.914.914 0 01-.652-1.56l.018-.019a.914.914 0 111.295 1.294l-.01.019z" fill="#6CEEC7"/><path d="M12.393 28.026a.916.916 0 011.156.587.915.915 0 01-.587 1.157c-5.096 1.68-8.135 4.186-8.135 6.72 0 2.138 2.204 4.304 6.06 5.938 4.16 1.763 9.695 2.736 15.608 2.736s11.459-.973 15.609-2.736c3.847-1.633 6.06-3.8 6.06-5.939 0-1.79-1.543-3.607-4.352-5.122-2.91-1.57-7.024-2.717-11.587-3.231l-4.995 6.398a.923.923 0 01-.725.349.923.923 0 01-.726-.349l-2.515-3.222c-5.794.505-8.879 2.212-8.879 3.277 0 .523.835 1.414 3.186 2.194 2.369.79 5.536 1.22 8.915 1.22 3.379 0 6.547-.43 8.915-1.22 2.35-.78 3.186-1.67 3.186-2.194 0-.477-.652-1.083-1.735-1.616a.918.918 0 01-.422-1.23.918.918 0 011.23-.422c2.286 1.12 2.764 2.387 2.764 3.259 0 3.451-7.015 5.25-13.947 5.25-6.932 0-13.947-1.808-13.947-5.25 0-2.855 4.766-4.415 9.384-4.985L16 22.013l-.01-.01a13.551 13.551 0 01-3.01-8.5C12.998 6.06 19.057 0 26.513 0 33.96 0 40.02 6.059 40.02 13.503c0 3.094-1.075 6.114-3.021 8.51-.018.018-.028.046-.046.064l-3.406 4.36c4.352.597 8.263 1.754 11.137 3.305C48.164 31.624 50 33.956 50 36.49c0 2.956-2.543 5.664-7.17 7.629C38.45 45.972 32.646 47 26.494 47c-6.151 0-11.954-1.028-16.324-2.882C5.543 42.153 3 39.445 3 36.489c0-3.415 3.425-6.499 9.393-8.463zm23.045-6.995a.405.405 0 01.074-.101 11.708 11.708 0 002.671-7.427c0-6.435-5.242-11.667-11.67-11.667-6.435 0-11.678 5.232-11.678 11.667 0 2.68.927 5.297 2.617 7.362.009.019.018.028.036.046l9.017 11.558 8.933-11.438z" fill="#fff"/><path d="M16.598 26.924l.027-.01a.92.92 0 011.084.717.92.92 0 01-.716 1.083l-.028.01c-.064.008-.12.018-.184.018a.922.922 0 01-.9-.735.92.92 0 01.717-1.083zM34.346 32.037a.914.914 0 01-.9-1.102.92.92 0 011.083-.715.17.17 0 01.065.018c.486.138.78.633.642 1.129a.931.931 0 01-.89.67z" fill="#6CEEC7"/></svg>